<?xml version="1.0" encoding="utf-8"?>
<svg version="1.1" xmlns:xlink="http://www.w3.org/1999/xlink" width="12px" height="12px" viewBox="163 235.5  12 12" xmlns="http://www.w3.org/2000/svg">
  <path d="M 169 235.5  C 172.36 235.5  175 238.14  175 241.5  C 175 244.86  172.36 247.5  169 247.5  C 165.64 247.5  163 244.86  163 241.5  C 163 238.14  165.64 235.5  169 235.5  Z " fill-rule="nonzero" fill="#ffffff" stroke="none" />
  <path d="M 169 236  C 172.08 236  174.5 238.42  174.5 241.5  C 174.5 244.58  172.08 247  169 247  C 165.92 247  163.5 244.58  163.5 241.5  C 163.5 238.42  165.92 236  169 236  Z " stroke-width="1" stroke="#797979" fill="none" />
  <path d="M 169 244.5  C 167.32 244.5  166 243.18  166 241.5  C 166 239.82  167.32 238.5  169 238.5  C 170.68 238.5  172 239.82  172 241.5  C 172 243.18  170.68 244.5  169 244.5  " fill-rule="nonzero" fill="#797979" stroke="none" />
</svg>