<?xml version="1.0" encoding="utf-8"?>
<svg version="1.1" xmlns:xlink="http://www.w3.org/1999/xlink" width="12px" height="12px" viewBox="163 275.5  12 12" xmlns="http://www.w3.org/2000/svg">
  <path d="M 169 275.5  C 172.36 275.5  175 278.14  175 281.5  C 175 284.86  172.36 287.5  169 287.5  C 165.64 287.5  163 284.86  163 281.5  C 163 278.14  165.64 275.5  169 275.5  Z " fill-rule="nonzero" fill="#ffffff" stroke="none" />
  <path d="M 169 276  C 172.08 276  174.5 278.42  174.5 281.5  C 174.5 284.58  172.08 287  169 287  C 165.92 287  163.5 284.58  163.5 281.5  C 163.5 278.42  165.92 276  169 276  Z " stroke-width="1" stroke="#797979" fill="none" />
  <path d="M 169 284.5  C 167.32 284.5  166 283.18  166 281.5  C 166 279.82  167.32 278.5  169 278.5  C 170.68 278.5  172 279.82  172 281.5  C 172 283.18  170.68 284.5  169 284.5  " fill-rule="nonzero" fill="#797979" stroke="none" />
</svg>