<?xml version="1.0" encoding="utf-8"?>
<svg version="1.1" xmlns:xlink="http://www.w3.org/1999/xlink" width="12px" height="12px" viewBox="279 275.5  12 12" xmlns="http://www.w3.org/2000/svg">
  <path d="M 285 275.5  C 288.36 275.5  291 278.14  291 281.5  C 291 284.86  288.36 287.5  285 287.5  C 281.64 287.5  279 284.86  279 281.5  C 279 278.14  281.64 275.5  285 275.5  Z " fill-rule="nonzero" fill="#ffffff" stroke="none" />
  <path d="M 285 276  C 288.08 276  290.5 278.42  290.5 281.5  C 290.5 284.58  288.08 287  285 287  C 281.92 287  279.5 284.58  279.5 281.5  C 279.5 278.42  281.92 276  285 276  Z " stroke-width="1" stroke="#797979" fill="none" />
  <path d="M 285 284.5  C 283.32 284.5  282 283.18  282 281.5  C 282 279.82  283.32 278.5  285 278.5  C 286.68 278.5  288 279.82  288 281.5  C 288 283.18  286.68 284.5  285 284.5  " fill-rule="nonzero" fill="#797979" stroke="none" />
</svg>