<?xml version="1.0" encoding="utf-8"?>
<svg version="1.1" xmlns:xlink="http://www.w3.org/1999/xlink" width="20px" height="8px" xmlns="http://www.w3.org/2000/svg">
  <g transform="matrix(1 0 0 1 -351 -103 )">
    <path d="M 0.410403245048916 4  C 0.410403245048916 5.26507601965536  1.32200035030078 6.29062276306371  2.44651236777221 6.29062276306371  C 3.57102438524364 6.29062276306371  4.48262149049551 5.26507601965536  4.48262149049551 4  C 4.48262149049551 2.73492398034464  3.57102438524364 1.70937723693629  2.44651236777221 1.70937723693629  C 1.32200035030078 1.70937723693629  0.410403245048916 2.73492398034464  0.410403245048916 4  Z M 10.0819215779846 0.277738120953529  C 8.25458958810164 0.277738120953529  6.77324430801795 1.9442515113817  6.77324425355922 4  C 6.77324425355922 6.05574864287202  8.2545895495935 7.72226210091058  10.0819215779846 7.72226210091058  C 11.9092536063756 7.72226210091058  13.3905989024099 6.05574864287202  13.3905989024099 4.00000011093205  C 13.3905989024099 1.94425157899209  11.9092536063756 0.277738120953529  10.0819215779846 0.277738120953529  Z M 15.6812216654736 4  C 15.6812216654736 5.26507601965536  16.5928187707255 6.29062276306371  17.7173307881969 6.29062276306371  C 18.8418428056684 6.29062276306371  19.7534399109202 5.26507601965536  19.7534399109202 4  C 19.7534399109202 2.73492398034464  18.8418428056684 1.70937723693629  17.7173307881969 1.70937723693629  C 16.5928187707255 1.70937723693629  15.6812216654736 2.73492398034464  15.6812216654736 4  Z " fill-rule="nonzero" fill="#555555" stroke="none" transform="matrix(1 0 0 1 351 103 )" />
  </g>
</svg>