<?xml version="1.0" encoding="utf-8"?>
<svg version="1.1" xmlns:xlink="http://www.w3.org/1999/xlink" width="17px" height="17px" xmlns="http://www.w3.org/2000/svg">
  <defs>
    <mask fill="white" id="clip296">
      <path d="M 0.408876163206879 8.5  C 0.408876163206879 3.92448103078025  4.10823192555476 0.225125268432351  8.68375089477452 0.225125268432351  C 13.2592698639943 0.225125268432351  16.9586256263422 3.92448103078025  16.9586256263422 8.5  C 16.9586256263422 13.0755189692198  13.2592698639943 16.7748747315677  8.68375089477452 16.7748747315677  C 4.10823192555476 16.7748747315677  0.408876163206879 13.0755189692198  0.408876163206879 8.5  Z M 2.35590551181103 8.5  C 2.35590551181103 12.0046528274875  5.17909806728704 14.8278453829635  8.68375089477452 14.8278453829635  C 12.188403722262 14.8278453829635  15.011596277738 12.0046528274875  15.011596277738 8.5  C 15.011596277738 4.99534717251253  12.188403722262 2.1721546170365  8.68375089477451 2.1721546170365  C 8.67941970926727 2.17214570509687  8.67508851573932 2.17214124912352  8.67075732106339 2.17214124912352  C 5.18315358647743 2.17214124912352  2.35589214389803 4.99940269170291  2.35589214389803 8.48700642628887  C 2.35589214389803 8.49133762096571  2.35589659987139 8.49566881449184  2.35590551181103 8.5  Z " fill-rule="evenodd" />
    </mask>
  </defs>
  <g transform="matrix(1 0 0 1 -393 -100 )">
    <path d="M 0.408876163206879 8.5  C 0.408876163206879 3.92448103078025  4.10823192555476 0.225125268432351  8.68375089477452 0.225125268432351  C 13.2592698639943 0.225125268432351  16.9586256263422 3.92448103078025  16.9586256263422 8.5  C 16.9586256263422 13.0755189692198  13.2592698639943 16.7748747315677  8.68375089477452 16.7748747315677  C 4.10823192555476 16.7748747315677  0.408876163206879 13.0755189692198  0.408876163206879 8.5  Z M 2.35590551181103 8.5  C 2.35590551181103 12.0046528274875  5.17909806728704 14.8278453829635  8.68375089477452 14.8278453829635  C 12.188403722262 14.8278453829635  15.011596277738 12.0046528274875  15.011596277738 8.5  C 15.011596277738 4.99534717251253  12.188403722262 2.1721546170365  8.68375089477451 2.1721546170365  C 8.67941970926727 2.17214570509687  8.67508851573932 2.17214124912352  8.67075732106339 2.17214124912352  C 5.18315358647743 2.17214124912352  2.35589214389803 4.99940269170291  2.35589214389803 8.48700642628887  C 2.35589214389803 8.49133762096571  2.35589659987139 8.49566881449184  2.35590551181103 8.5  Z " fill-rule="nonzero" fill="#ffffff" stroke="none" transform="matrix(1 0 0 1 393 100 )" />
    <path d="M 0.408876163206879 8.5  C 0.408876163206879 3.92448103078025  4.10823192555476 0.225125268432351  8.68375089477452 0.225125268432351  C 13.2592698639943 0.225125268432351  16.9586256263422 3.92448103078025  16.9586256263422 8.5  C 16.9586256263422 13.0755189692198  13.2592698639943 16.7748747315677  8.68375089477452 16.7748747315677  C 4.10823192555476 16.7748747315677  0.408876163206879 13.0755189692198  0.408876163206879 8.5  Z " stroke-width="2" stroke="#555555" fill="none" transform="matrix(1 0 0 1 393 100 )" mask="url(#clip296)" />
    <path d="M 2.35590551181103 8.5  C 2.35590551181103 12.0046528274875  5.17909806728704 14.8278453829635  8.68375089477452 14.8278453829635  C 12.188403722262 14.8278453829635  15.011596277738 12.0046528274875  15.011596277738 8.5  C 15.011596277738 4.99534717251253  12.188403722262 2.1721546170365  8.68375089477451 2.1721546170365  C 8.67941970926727 2.17214570509687  8.67508851573932 2.17214124912352  8.67075732106339 2.17214124912352  C 5.18315358647743 2.17214124912352  2.35589214389803 4.99940269170291  2.35589214389803 8.48700642628887  C 2.35589214389803 8.49133762096571  2.35589659987139 8.49566881449184  2.35590551181103 8.5  Z " stroke-width="2" stroke="#555555" fill="none" transform="matrix(1 0 0 1 393 100 )" mask="url(#clip296)" />
  </g>
</svg>