<?xml version="1.0" encoding="utf-8"?>
<svg version="1.1" xmlns:xlink="http://www.w3.org/1999/xlink" width="87px" height="26px" xmlns="http://www.w3.org/2000/svg">
  <defs>
    <mask fill="white" id="clip318">
      <path d="M 15.9427344309234 0.525392249801698  L 70.7458840372226 0.525392249801698  C 79.2652827487473 0.525392249801698  86.1904080171797 6.11884540230997  86.1904080171797 13  C 86.1904080171797 19.88115459769  79.2652827487473 25.4746077501983  70.7458840372226 25.4746077501983  L 15.9427344309234 25.4746077501983  C 7.42333571939871 25.4746077501983  0.498210450966357 19.88115459769  0.498210450966357 13  C 0.498210450966357 6.11884540230997  7.42333571939871 0.525392249801698  15.9427344309234 0.525392249801698  Z M 86.688618468146 13  C 86.688618468146 5.91764205150032  79.5143879742305 0.122985548182397  70.7458840372226 0.122985548182397  L 15.9427344309234 0.122985548182397  C 7.17423049391553 0.122985548182397  0 5.91764205150032  0 13  C 0 20.0823579484997  7.17423049391553 25.8770144518176  15.9427344309234 25.8770144518176  L 70.7458840372226 25.8770144518176  C 79.5143879742305 25.8770144518176  86.688618468146 20.0823579484997  86.688618468146 13  Z " fill-rule="evenodd" />
    </mask>
  </defs>
  <g transform="matrix(1 0 0 1 -340 -64 )">
    <path d="M 15.9427344309234 0.525392249801698  L 70.7458840372226 0.525392249801698  C 79.2652827487473 0.525392249801698  86.1904080171797 6.11884540230997  86.1904080171797 13  C 86.1904080171797 19.88115459769  79.2652827487473 25.4746077501983  70.7458840372226 25.4746077501983  L 15.9427344309234 25.4746077501983  C 7.42333571939871 25.4746077501983  0.498210450966357 19.88115459769  0.498210450966357 13  C 0.498210450966357 6.11884540230997  7.42333571939871 0.525392249801698  15.9427344309234 0.525392249801698  Z M 86.688618468146 13  C 86.688618468146 5.91764205150032  79.5143879742305 0.122985548182397  70.7458840372226 0.122985548182397  L 15.9427344309234 0.122985548182397  C 7.17423049391553 0.122985548182397  0 5.91764205150032  0 13  C 0 20.0823579484997  7.17423049391553 25.8770144518176  15.9427344309234 25.8770144518176  L 70.7458840372226 25.8770144518176  C 79.5143879742305 25.8770144518176  86.688618468146 20.0823579484997  86.688618468146 13  Z " fill-rule="nonzero" fill="#ffffff" stroke="none" transform="matrix(1 0 0 1 340 64 )" />
    <path d="M 15.9427344309234 0.525392249801698  L 70.7458840372226 0.525392249801698  C 79.2652827487473 0.525392249801698  86.1904080171797 6.11884540230997  86.1904080171797 13  C 86.1904080171797 19.88115459769  79.2652827487473 25.4746077501983  70.7458840372226 25.4746077501983  L 15.9427344309234 25.4746077501983  C 7.42333571939871 25.4746077501983  0.498210450966357 19.88115459769  0.498210450966357 13  C 0.498210450966357 6.11884540230997  7.42333571939871 0.525392249801698  15.9427344309234 0.525392249801698  Z " stroke-width="2" stroke="#f2f2f2" fill="none" transform="matrix(1 0 0 1 340 64 )" mask="url(#clip318)" />
    <path d="M 86.688618468146 13  C 86.688618468146 5.91764205150032  79.5143879742305 0.122985548182397  70.7458840372226 0.122985548182397  L 15.9427344309234 0.122985548182397  C 7.17423049391553 0.122985548182397  0 5.91764205150032  0 13  C 0 20.0823579484997  7.17423049391553 25.8770144518176  15.9427344309234 25.8770144518176  L 70.7458840372226 25.8770144518176  C 79.5143879742305 25.8770144518176  86.688618468146 20.0823579484997  86.688618468146 13  Z " stroke-width="2" stroke="#f2f2f2" fill="none" transform="matrix(1 0 0 1 340 64 )" mask="url(#clip318)" />
  </g>
</svg>