<?xml version="1.0" encoding="utf-8"?>
<svg version="1.1" xmlns:xlink="http://www.w3.org/1999/xlink" width="20px" height="7px" xmlns="http://www.w3.org/2000/svg">
  <defs>
    <mask fill="white" id="clip319">
      <path d="M 0.410403245048916 3.5  C 0.410403245048916 4.60694151719844  1.32200035030078 5.50429491768075  2.44651236777221 5.50429491768075  C 3.57102438524364 5.50429491768075  4.48262149049551 4.60694151719844  4.48262149049551 3.5  C 4.48262149049551 2.39305848280156  3.57102438524364 1.49570508231925  2.44651236777221 1.49570508231925  C 1.32200035030078 1.49570508231925  0.410403245048916 2.39305848280156  0.410403245048916 3.5  Z M 10.0819215779846 0.243020855834338  C 8.25458958810164 0.243020855834338  6.77324430801795 1.70122007245899  6.77324425355922 3.5  C 6.77324425355922 5.29878006251302  8.2545895495935 6.75697933829675  10.0819215779846 6.75697933829675  C 11.9092536063756 6.75697933829675  13.3905989024099 5.29878006251302  13.3905989024099 3.50000009706554  C 13.3905989024099 1.70122013161808  11.9092536063756 0.243020855834338  10.0819215779846 0.243020855834338  Z M 15.6812216654736 3.5  C 15.6812216654736 4.60694151719844  16.5928187707255 5.50429491768075  17.7173307881969 5.50429491768075  C 18.8418428056684 5.50429491768075  19.7534399109202 4.60694151719844  19.7534399109202 3.5  C 19.7534399109202 2.39305848280156  18.8418428056684 1.49570508231925  17.7173307881969 1.49570508231925  C 16.5928187707255 1.49570508231925  15.6812216654736 2.39305848280156  15.6812216654736 3.5  Z " fill-rule="evenodd" />
    </mask>
  </defs>
  <g transform="matrix(1 0 0 1 -353 -74 )">
    <path d="M 0.410403245048916 3.5  C 0.410403245048916 4.60694151719844  1.32200035030078 5.50429491768075  2.44651236777221 5.50429491768075  C 3.57102438524364 5.50429491768075  4.48262149049551 4.60694151719844  4.48262149049551 3.5  C 4.48262149049551 2.39305848280156  3.57102438524364 1.49570508231925  2.44651236777221 1.49570508231925  C 1.32200035030078 1.49570508231925  0.410403245048916 2.39305848280156  0.410403245048916 3.5  Z M 10.0819215779846 0.243020855834338  C 8.25458958810164 0.243020855834338  6.77324430801795 1.70122007245899  6.77324425355922 3.5  C 6.77324425355922 5.29878006251302  8.2545895495935 6.75697933829675  10.0819215779846 6.75697933829675  C 11.9092536063756 6.75697933829675  13.3905989024099 5.29878006251302  13.3905989024099 3.50000009706554  C 13.3905989024099 1.70122013161808  11.9092536063756 0.243020855834338  10.0819215779846 0.243020855834338  Z M 15.6812216654736 3.5  C 15.6812216654736 4.60694151719844  16.5928187707255 5.50429491768075  17.7173307881969 5.50429491768075  C 18.8418428056684 5.50429491768075  19.7534399109202 4.60694151719844  19.7534399109202 3.5  C 19.7534399109202 2.39305848280156  18.8418428056684 1.49570508231925  17.7173307881969 1.49570508231925  C 16.5928187707255 1.49570508231925  15.6812216654736 2.39305848280156  15.6812216654736 3.5  Z " fill-rule="nonzero" fill="#333333" stroke="none" transform="matrix(1 0 0 1 353 74 )" />
    <path d="M 0.410403245048916 3.5  C 0.410403245048916 4.60694151719844  1.32200035030078 5.50429491768075  2.44651236777221 5.50429491768075  C 3.57102438524364 5.50429491768075  4.48262149049551 4.60694151719844  4.48262149049551 3.5  C 4.48262149049551 2.39305848280156  3.57102438524364 1.49570508231925  2.44651236777221 1.49570508231925  C 1.32200035030078 1.49570508231925  0.410403245048916 2.39305848280156  0.410403245048916 3.5  Z " stroke-width="2" stroke="#aaaaaa" fill="none" transform="matrix(1 0 0 1 353 74 )" mask="url(#clip319)" />
    <path d="M 10.0819215779846 0.243020855834338  C 8.25458958810164 0.243020855834338  6.77324430801795 1.70122007245899  6.77324425355922 3.5  C 6.77324425355922 5.29878006251302  8.2545895495935 6.75697933829675  10.0819215779846 6.75697933829675  C 11.9092536063756 6.75697933829675  13.3905989024099 5.29878006251302  13.3905989024099 3.50000009706554  C 13.3905989024099 1.70122013161808  11.9092536063756 0.243020855834338  10.0819215779846 0.243020855834338  Z " stroke-width="2" stroke="#aaaaaa" fill="none" transform="matrix(1 0 0 1 353 74 )" mask="url(#clip319)" />
    <path d="M 15.6812216654736 3.5  C 15.6812216654736 4.60694151719844  16.5928187707255 5.50429491768075  17.7173307881969 5.50429491768075  C 18.8418428056684 5.50429491768075  19.7534399109202 4.60694151719844  19.7534399109202 3.5  C 19.7534399109202 2.39305848280156  18.8418428056684 1.49570508231925  17.7173307881969 1.49570508231925  C 16.5928187707255 1.49570508231925  15.6812216654736 2.39305848280156  15.6812216654736 3.5  Z " stroke-width="2" stroke="#aaaaaa" fill="none" transform="matrix(1 0 0 1 353 74 )" mask="url(#clip319)" />
  </g>
</svg>