<?xml version="1.0" encoding="utf-8"?>
<svg version="1.1" xmlns:xlink="http://www.w3.org/1999/xlink" width="4px" height="4px" xmlns="http://www.w3.org/2000/svg">
  <g transform="matrix(1 0 0 1 -78 -668 )">
    <path d="M 1.1370709609375 1.11791128013393  C 1.36569626929329 0.884151159323811  1.67680573854174 0.752911005837516  2.0011802520752 0.753390597842261  C 2.67185235062538 0.754382195402646  3.215022416922 1.30697767731275  3.215022416922 1.98829608631964  C 3.215022416922 2.67031627742215  2.67077466485298 3.22320288269861  1.99941103923645 3.22320288269861  C 1.32804741361992 3.22320288269861  0.783799661550904 2.67031627742215  0.783799661550904 1.98829608631964  C 0.783799661550904 1.66216096597429  0.910796642810529 1.34926760862611  1.1370709609375 1.11791128013393  Z M 3.38521971899414 0.58972825595238  C 3.01885670016526 0.216014397480143  2.52036013222205 0.00702011813121674  2.00118025207519 0.00947083878968226  C 0.922495303682501 0.0111325621196574  0.0489148839080453 0.899926116202929  0.0489148839080453 1.99573430785297  C 0.0489148839080453 3.09271859226441  0.9243013294044 3.98200006070515  2.00414523437191 3.98200006070515  C 3.08398913933942 3.98200006070515  3.95937558483578 3.09271859226441  3.95937558483578 1.99573430785297  C 3.95937558483578 1.46820636423915  3.7528031105038 0.96234695158455  3.38521971899414 0.58972825595238  Z " fill-rule="nonzero" fill="#5781f1" stroke="none" transform="matrix(1 0 0 1 78 668 )" />
  </g>
</svg>