<?xml version="1.0" encoding="utf-8"?>
<svg version="1.1" xmlns:xlink="http://www.w3.org/1999/xlink" width="6px" height="10px" xmlns="http://www.w3.org/2000/svg">
  <g transform="matrix(1 0 0 1 -393 -665 )">
    <path d="M 0.139246323529412 9.86505681818182  C 0.218520220588235 9.93607954545455  0.323069852941176 9.97159090909091  0.426470588235294 9.97159090909091  C 0.529871323529411 9.97159090909091  0.634420955882353 9.93607954545455  0.713694852941176 9.86505681818182  L 5.86075367647059 5.25745738636364  C 6.01930147058824 5.11541193181818  6.01930147058824 4.88458806818182  5.86075367647059 4.74254261363637  L 0.713694852941176 0.134943181818182  C 0.555147058823529 -0.00710227272727273  0.297794117647059 -0.00710227272727273  0.139246323529412 0.134943181818182  C -0.0193014705882351 0.276988636363636  -0.0193014705882351 0.5078125  0.139246323529412 0.649857954545455  L 4.99908088235294 5  L 0.139246323529412 9.35014204545455  C -0.0193014705882351 9.4921875  -0.0193014705882351 9.72301136363636  0.139246323529412 9.86505681818182  Z " fill-rule="nonzero" fill="#c2c2c2" stroke="none" transform="matrix(1 0 0 1 393 665 )" />
  </g>
</svg>