<?xml version="1.0" encoding="utf-8"?>
<svg version="1.1" xmlns:xlink="http://www.w3.org/1999/xlink" width="8px" height="10px" xmlns="http://www.w3.org/2000/svg">
  <g transform="matrix(1 0 0 1 -76 -665 )">
    <path d="M 6.82534399095395 7.06375038636553  C 8.38309525324567 5.43551088760213  8.38309525324567 2.85231870878667  6.82534399095395 1.22407921002327  C 6.08520661259327 0.450259136101158  5.06591687087955 0.0132948738326377  4.00099390131579 0.0132948738326377  C 2.93607093175203 0.0132948738326377  1.91678119003831 0.450259136101158  1.17664381167763 1.22407921002327  C -0.381107450614091 2.85231870878667  -0.381107450614091 5.43551088760213  1.17664381167763 7.06375038636553  L 4.00099389648437 9.98670212765957  L 6.82534399095395 7.06375038636553  Z M 6.39984146926398 1.69773450808261  C 7.72428143596839 3.07808841559697  7.72428143596839 5.27206425343146  6.39984146916118 6.65241816094581  L 4.00099389648437 9.1453407482131  L 1.6021463333676 6.65241816094581  C 0.277706366663191 5.27206425343146  0.277706366663191 3.07808841559697  1.6021463333676 1.69773450808261  C 2.23161277287026 1.04204629208252  3.09702953426423 0.671997920842281  4.00099390131579 0.671997920842281  C 4.90495826836735 0.671997920842281  5.77037502976132 1.04204629208252  6.39984146926398 1.69773450808261  Z " fill-rule="nonzero" fill="#5781f1" stroke="none" transform="matrix(1 0 0 1 76 665 )" />
  </g>
</svg>