<?xml version="1.0" encoding="utf-8"?>
<svg version="1.1" xmlns:xlink="http://www.w3.org/1999/xlink" width="117px" height="104px" xmlns="http://www.w3.org/2000/svg">
  <defs>
    <filter x="129px" y="5px" width="117px" height="104px" filterUnits="userSpaceOnUse" id="filter308">
      <feOffset dx="0" dy="5" in="SourceAlpha" result="shadowOffsetInner" />
      <feGaussianBlur stdDeviation="7.5" in="shadowOffsetInner" result="shadowGaussian" />
      <feComposite in2="shadowGaussian" operator="atop" in="SourceAlpha" result="shadowComposite" />
      <feColorMatrix type="matrix" values="0 0 0 0 0.250980392156863  0 0 0 0 0.529411764705882  0 0 0 0 0.949019607843137  0 0 0 1 0  " in="shadowComposite" />
    </filter>
    <g id="widget309">
      <path d="M 33.0247644620008 30.209869497979  L 33.0274709396266 30.209869497979  C 24.5193942419553 33.0268951193659  18.7844303406144 40.9455416731415  18.7966726104396 49.8592803897448  C 18.7925238573678 53.9043673572772  19.9875901216297 57.8609997447276  22.2325795366236 61.2349011657196  L 22.5438275163389 61.6908944311015  L 22.9308575964214 62.2235591841915  C 23.5882601008971 63.1006837017881  24.3145207542975 63.9246757962803  25.1028271149948 64.6878062894187  L 25.5832315453812 65.1384190830453  L 25.9824409201487 65.4921838185617  C 29.753202766996 68.753466576185  34.5842549747131 70.5476452911854  39.5826237843433 70.5430832015308  C 44.5796615852381 70.5470355233992  49.4092299328453 68.7528723254171  53.1787469320991 65.4921838185617  L 53.5779563068666 65.1384190830453  L 54.058360737253 64.6878062894187  C 54.8466670979503 63.9246757962803  55.5729277513507 63.1006837017881  56.2303302558264 62.2235591841915  L 56.616007097096 61.6908944311015  L 56.8961302206922 61.2819800948978  C 61.7541598520936 54.0042418124574  61.4942801051783 44.4788123658635  56.2465692669502 37.4734797805245  C 50.8938929344778 30.3250158789978  41.5312660918762 27.3964548486742  33.0247644620008 30.209869497979  Z M 33.8556725604533 36.9917307083851  C 35.3817210595301 36.9917307083851  36.6200498071591 38.2190958721504  36.6244148836043 39.7359598812801  L 49.8862847737721 47.3600603987269  C 50.833575803682 47.9028200913487  51.4172953354401 48.9069675659274  51.4172953354401 49.9937916778943  C 51.4172953354401 51.0806157898612  50.833575803682 52.0847632644399  49.8862847737721 52.6275229570617  L 37.06828150262 60.0081580848613  C 36.6020722885371 60.275550051573  36.0732917052583 60.416313475606  35.5350377138375 60.416313475606  C 33.8436660507701 60.416313475606  32.4713760002618 59.0556207984873  33 57.3744268056939  L 33 42.1248805986761  C 31.6128642348466 41.6326568015324  31.0869189106324 40.72539299444  31.0869189106324 39.7438319326836  C 31.0869189106324 38.2238883965129  32.3265321436189 36.9917307083851  33.8556725604533 36.9917307083851  Z M 47.5586912653411 49.9937916778943  L 36 43.3166507214965  L 36 56.6709327065394  L 47.5586912653411 49.9937916778943  Z M 69.2621472945823 26.1772206920118  C 69.2621472945823 24.0828797375666  70.9672448435827 22.3853470759378  73.0729050061637 22.385347148185  C 75.1779660997001 22.3868316318408  76.8836636788422 24.0834737230074  76.8836636788422 26.1758746381733  C 76.8836636788422 26.1767716895063  76.8836633584765 26.1776687407818  76.8836627177452 26.1785657918888  C 76.8836627177452 28.2715616464569  75.1785651687447 29.9690942358386  73.0729050061637 29.9690943080858  C 70.9673153766663 29.9676090562095  69.2613995384443 28.270146832742  69.2621472945823 26.1772206920118  Z M 41.5719042460631 17  L 8.6608149782379 17  C 5.89351131226644 16.8785392661286  3.61226731833867 19.034312711625  3.47109339699764 21.781391379142  L 4 22.047723755687  L 4 56.5202800753715  C 3.46273590962087 59.271044543205  5.62921396548379 61.540974975371  8.39287107664233 61.6841689317166  L 8.66081497823789 61.6908944311015  L 18.4583596364129 61.6908944311015  L 18.2093612962513 61.2416267373518  C 12.7787608804114 51.1694205299436  15.1956690227076 38.6491085603265  24.056763264111 31.3007561908109  C 33.0468687587879 23.8435952167124  46.1156723322728 23.8435952167124  55.1057778269496 31.3007561908109  C 63.9668721410375 38.6491085603265  66.3837802106492 51.1680753578193  60.9531797948093 61.2416267373518  L 60.7055346934607 61  L 77.9473188185655 61  C 80.7146224297513 61.6894644562202  82.9958663699066 59.5336910631038  83.1370403271214 56.7866124519165  L 83 56.5202800753715  L 83 22.047723755687  C 83.1461185244311 19.2964396365209  80.9794424499709 17.0257103666375  78.2152627201611 16.882489799465  L 77.9473188185655 16.8771093277098  L 69.0862245044777 16.8771093277098  L 69.0862245044777 8.62753122644641  C 69.0884993850525 5.87575356512088  66.9210404109094 3.60482732945459  64.1563273919556 3.46229727022436  L 63.8897367291729 4  L 38.2537303322375 4  C 35.4864266662661 3.45834673688795  33.2051826723383 5.61412018238439  33.0640087509973 8.36119884990139  L 33.0572424842483 8.62753122644641  L 33.0572424842483 13.4295846757659  L 41.5719042460631 13.4295846757659  C 42.5286534630816 13.4295846757659  43.3040668620595 14.2016795188722  43.3040668620595 15.1526744517993  L 43.2932408788718 15.3477158123914  C 43.1935623457607 16.2180974541773  42.4532066953206 16.8758973924524  41.5719042460631 17  Z M 29.5929173249399 8.62618612656943  L 29.5929173249399 8.62753122644641  C 29.5905306671095 3.99087206990279  33.2808821261626 0.184193974562476  37.9424823525223 0.0147726182805153  L 38.2537303322375 0  L 63.8897367291729 0  C 68.5540808071704 0.012295953997088  72.3791518768171 3.68475234475568  72.5437834697216 8.31815522035421  L 72.5505497364705 8.62753122644641  L 72.5505497364705 13.4295846757659  L 77.9473188185655 13.4295846757659  C 80.2437875435619 13.4295846757659  82.44688184557 14.3375359791459  84.0707841935827 15.9530166813114  C 85.5968815993659 17.4716189045607  86.4982541017006 19.5014185776293  86.5986590088039 21.6455349911155  L 86 22.047723755687  L 86 56.5202800753715  C 86.6105184124257 61.156939204913  82.9201669960634 64.9636172893547  78.2585667982808 65.1330386835374  L 77.9473188185656 65  L 58.3386968960332 65  L 57.9895578661343 65.5540590631285  C 53.3910224267652 70.9066473759786  46.6652545298667 73.9895312848761  39.5839770231562 73.9906078534747  C 32.5022267026744 73.9899247420131  25.775885440265 70.9070046865231  21.1770429413651 65.5540590631285  L 20.8279039114662 65  L 8.66081497823789 65  C 3.99645253433483 65.1349198853325  0.170776095050817 61.4630510762637  0.00541499887634541 56.8296560092164  L 0 56.5202800753715  L 0 22.047723755687  C -0.00311342110409222 17.4105432836439  3.68744220744612 13.60306004115  8.34956699852264 13.4336200476442  L 8.6608149782379 14  L 29.5929173249399 14  L 29.5929173249399 8.62618612656943  Z " fill-rule="nonzero" fill="#4087f2" stroke="none" transform="matrix(1 0 0 1 144 15 )" />
    </g>
  </defs>
  <g transform="matrix(1 0 0 1 -129 -5 )">
    <use xlink:href="#widget309" filter="url(#filter308)" />
    <use xlink:href="#widget309" />
  </g>
</svg>