<?xml version="1.0" encoding="utf-8"?>
<svg version="1.1" xmlns:xlink="http://www.w3.org/1999/xlink" width="7px" height="20px" xmlns="http://www.w3.org/2000/svg">
  <g transform="matrix(1 0 0 1 -138 -192 )">
    <path d="M 0.739743902439017 11.3017851506456  C 0.634116929698706 9.77959146341463  0.412008967001441 6.87687015781922  0.412008967001441 5.08699103299856  C 0.941412482065999 4.12906527977044  2.1004899569584 2.1503450502152  2.1004899569584 0.24685114777618  C 2.1004899569584 0.24685114777618  2.11458608321377 0.307276542324242  4.37522883787662 0.747827474892393  C 6.63591857962697 1.18833142037302  6.58827367288379 2.1123324964132  6.58827367288379 2.1123324964132  C 7.04409540889526 2.87042216642754  6.45952905308465 6.96313845050215  6.58822668579626 11.3017851506456  C 6.71692431850789 15.6404788378766  6.58822668579626 16.2294619799139  6.58822668579626 18.1957776183644  C 5.50479842180775 18.5437170014347  4.24216140602582 19.2405824964132  1.5461362984218 19.5066703730273  C 1.5461362984218 19.001700143472  1.33864131994261 18.2555921807747  1.31937661406025 17.685074964132  C 1.0043281922525 15.8220839311334  0.890995337159268 13.4816571018651  0.739743902439017 11.3017851506456  Z " fill-rule="nonzero" fill="#ebf4f9" stroke="none" transform="matrix(1 0 0 1 138 192 )" />
  </g>
</svg>