<?xml version="1.0" encoding="utf-8"?>
<svg version="1.1" xmlns:xlink="http://www.w3.org/1999/xlink" width="2px" height="4px" xmlns="http://www.w3.org/2000/svg">
  <g transform="matrix(1 0 0 1 -135 -183 )">
    <path d="M 0.481781733620248 0.593611351506458  L 0.489574072214244 0.54764417913507  L 1.62179560736486 0.680741092027057  L 1.60840823433762 0.759357309284691  C 1.58533481779049 0.885516404181187  1.55567556575799 0.998698524697685  1.47772574175034 1.26933614757122  L 1.40151343758964 1.53312729534741  C 1.39058079531321 1.57150575773724  1.3809840899091 1.60579645091207  1.37183564131991 1.63922118548883  L 1.3672946838833 1.65587630907973  C 1.2608733787661 2.04772563558106  1.22991953849832 2.29989051321992  1.27023095121948 2.44396280426317  C 1.27663009134384 2.46683327239188  1.28367646293638 2.48200918876819  1.29004678431371 2.49092341791351  C 1.29219722668578 2.49393263209674  1.29283907030128 2.49453272432876  1.29481553515063 2.49576233613446  C 1.30278554758487 2.50072095060463  1.31789001673837 2.50673970116827  1.34425478479193 2.5128393769215  C 1.3836089765662 2.52194429309284  1.43559066618839 2.52776977905309  1.50077077809658 2.52884382332445  L 1.52298708751793 2.52902387784382  L 1.52298708751793 3.50858382865341  C 0.798670169775202 3.50858382865341  0.307358585365819 3.20291311662226  0.158924183165936 2.67241123139988  C 0.0683018790052377 2.34852907604017  0.105398309899556 2.00014420168067  0.235868671449036 1.50257097478992  L 0.254235673362018 1.43378365074811  C 0.265687428981323 1.39161765320763  0.277423111908168 1.34953059397418  0.290938978957418 1.30206993031359  L 0.399537916307963 0.924839709776596  C 0.446723539933032 0.757927988932161  0.466808703012892 0.676615196146752  0.481781733620248 0.593611351506458  Z " fill-rule="nonzero" fill="#ebbaaa" stroke="none" transform="matrix(1 0 0 1 135 183 )" />
  </g>
</svg>