<?xml version="1.0" encoding="utf-8"?>
<svg version="1.1" xmlns:xlink="http://www.w3.org/1999/xlink" width="3px" height="3px" xmlns="http://www.w3.org/2000/svg">
  <g transform="matrix(1 0 0 1 -135 -205 )">
    <path d="M 2.63630532388808 0.743732543758966  C 2.33769848278334 0.281182482352941  1.90430119332854 0.179770664849355  1.43129529268293 0.364508800717357  C 1.09849622991391 0.494487489383067  0.753228720588226 0.765793827116215  0.49360725394547 1.06363770129124  C 0.406946384146323 1.16305705954089  0.390625137374457 1.32196370573888  0.454575409253948 1.44365877761836  C 0.894020735652788 2.27990752080344  1.58376458572454 2.59861710129125  2.18269127618365 2.35515704074606  C 2.78564429017217 2.1100603635581  3.04218777367288 1.37250677604017  2.63630532388808 0.743732543758966  Z M 2.22864126470589 1.10049957890961  L 2.23772156635582 1.11424713615495  C 2.41381037553802 1.3870357097561  2.31845576685797 1.6611768348637  2.02092995767575 1.78211928637015  L 2.00636969296986 1.78784062209469  C 1.68521323170731 1.90971020401722  1.30990029913917 1.76742131190818  1.01112773457675 1.33668186585366  L 1.00668256814922 1.33017030129125  L 1.01101736190816 1.32607030200861  C 1.19069335329985 1.15771558622669  1.39749517826397 1.0139710153515  1.58733508751791 0.939826744476329  C 1.86899871377329 0.829819616642754  2.07611168723099 0.874833227690098  2.22864126470589 1.10049957890961  Z " fill-rule="nonzero" fill="#b5c6da" stroke="none" transform="matrix(1 0 0 1 135 205 )" />
  </g>
</svg>