<?xml version="1.0" encoding="utf-8"?>
<svg version="1.1" xmlns:xlink="http://www.w3.org/1999/xlink" width="7px" height="20px" xmlns="http://www.w3.org/2000/svg">
  <g transform="matrix(1 0 0 1 -129 -192 )">
    <path d="M 6.26025609756098 11.3017851506456  C 6.36583608321376 9.77959146341463  6.58794404591106 6.87687015781922  6.58794404591106 5.08699103299856  C 6.058587517934 4.12906527977044  4.8994630559541 2.1503450502152  4.8994630559541 0.24685114777618  C 4.8994630559541 0.24685114777618  4.88536692969871 0.307276542324242  2.62472417503588 0.747827474892393  C 0.364081420373026 1.18833142037302  0.411726327116213 2.1123324964132  0.411726327116213 2.1123324964132  C -0.0440954088952594 2.87042216642754  0.54042395982782 6.96313845050215  0.411726327116213 11.3017851506456  C 0.283028694404578 15.6404788378766  0.411726327116213 16.2294619799139  0.411726327116213 18.1957776183644  C 1.49520157819225 18.5437170014347  2.75779160688666 19.2405824964132  5.4538637015782 19.5066703730273  C 5.4538637015782 19.001700143472  5.66135868005739 18.2555921807747  5.68062338593975 17.685074964132  C 5.99562482065997 15.8220839311334  6.10900466284073 13.4816571018651  6.26025609756098 11.3017851506456  Z " fill-rule="nonzero" fill="#ebf4f9" stroke="none" transform="matrix(1 0 0 1 129 192 )" />
  </g>
</svg>