<?xml version="1.0" encoding="utf-8"?>
<svg version="1.1" xmlns:xlink="http://www.w3.org/1999/xlink" width="4px" height="21px" xmlns="http://www.w3.org/2000/svg">
  <g transform="matrix(1 0 0 1 -132 -211 )">
    <path d="M 0.497228906743175 10.2584794325682  C 0.482944973098995 6.27117191319942  0.63483961406024 2.94542628156384  0.949347872309886 1.42460273780488  C 1.11852163880917 0.606552939383072  1.91882446126255 0.0805349379483502  2.73687430667144 0.249708704447627  C 3.54674360616929 0.417190747847918  4.07039251865135 1.2032423866571  3.91663540351504 2.01269956241033  L 3.91176834002869 2.03723513880918  C 3.37010913593974 4.65646055667145  3.40853625681493 15.3832697252511  3.92792193687231 19.020644152439  C 4.04600626721663 19.8476153891679  3.47133994978478 20.6137342596844  2.64436876004302 20.7318186370158  C 1.81739752331418 20.8499029673601  1.05127865279769 20.2752366499283  0.933194275466263 19.4482654601865  C 0.677453096484925 17.657252489957  0.514032100071717 14.1020921215925  0.497679371951222 10.3715773522238  L 0.497228906743175 10.2584794325682  Z " fill-rule="nonzero" fill="#f6ddd6" stroke="none" transform="matrix(1 0 0 1 132 211 )" />
  </g>
</svg>