<?xml version="1.0" encoding="utf-8"?>
<svg version="1.1" xmlns:xlink="http://www.w3.org/1999/xlink" width="2px" height="2px" xmlns="http://www.w3.org/2000/svg">
  <g transform="matrix(1 0 0 1 -141 -229 )">
    <path d="M 1.36639563366809 0.804312919177429  C 1.18318909516976 0.392727834528936  0.774625530846455 0.208926690100441  0.415037046389292 0.368467837398384  C 0.239542279292209 0.446951246771884  0.128977464849337 0.582728142037297  0.0892721855571305 0.759081331898623  C 0.0513469650884796 0.929374127211853  0.0802546743185151 1.12995417264468  0.171781197991398 1.33594362219033  C 0.256127844093726 1.52520961549499  0.44589446915351 1.64494894069823  0.698132995695839 1.68668863558107  C 0.921650069823045 1.72325918699187  1.17386397513152 1.69247581587757  1.36020937637492 1.60956446867527  L 1.37810707125777 1.6013798818747  C 1.45975302486848 1.56277096795791  1.51514472405548 1.51826649019608  1.5451043175514 1.46379448493544  L 1.53246867527499 1.45680105212817  L 1.55596221903393 1.44095074127212  L 1.55957897178382 1.4316304452415  L 1.56661068340505 1.40646184313725  C 1.56823643663317 1.39998526829267  1.56869634624582 1.39656661310378  1.56973100191294 1.38887463892875  C 1.57356709038735 1.36534557293161  1.57289216786224 1.33419538928742  1.56746691343854 1.30012956288857  C 1.5584511563845 1.24471361836441  1.53761557819223 1.18262212434242  1.50217772883786 1.10056819751316  L 1.461617723099 1.01049733381158  L 1.37753013247251 0.82929632950741  L 1.36639563366809 0.804312919177429  Z M 0.583528419416552 0.746720846006705  C 0.72373099713055 0.684517209469144  0.893893293639394 0.761068384505014  0.988096953610693 0.97270286274509  L 1.00542798421808 1.01125532950742  L 1.10683351171686 1.23026784552845  L 1.11879435676709 1.25726255380202  L 1.11451953419415 1.2585492482066  C 1.00960050023912 1.28771450932569  0.879371902917266 1.29675282018174  0.765364125298902 1.27809969823051  C 0.63934532042083 1.2572461396461  0.570767415590619 1.21397472835963  0.550098860832122 1.16759640554759  C 0.492505910569093 1.03797757532281  0.47635131133427 0.92588668292683  0.493348608321374 0.849563802486841  C 0.504354425155422 0.800683448589192  0.528117549497855 0.771501585365854  0.583528419416552 0.746720846006705  Z " fill-rule="nonzero" fill="#cdc7bb" stroke="none" transform="matrix(1 0 0 1 141 229 )" />
  </g>
</svg>