<?xml version="1.0" encoding="utf-8"?>
<svg version="1.1" xmlns:xlink="http://www.w3.org/1999/xlink" width="15px" height="32px" xmlns="http://www.w3.org/2000/svg">
  <g transform="matrix(1 0 0 1 -130 -193 )">
    <path d="M 14.6219165883342 30.0130901140944  C 12.3791742937713 31.9080868119606  3.40319856033245 32.2670383275261  0.695964601988815 30.5252642845756  C 0.695964601988815 27.6059192457471  0.570509078315916 23.0472827309786  0.904587270568452 20.0254073922252  C 1.23871407015286 17.0034843205575  1.16551142828871 16.8479704857553  1.16541421362488 11.932864566965  C 1.59233240983524 9.79228202500512  1.16541421362488 8.10816934253376  1.16541421362488 5.94023584067773  L 0.179317271063155 1.72780615335565  C 1.44150385890269 1.07138311584796  4.02566405283727 -0.872921682494139  3.86623200415573 0.702455421192867  C 3.66694194330381 2.67167680080162  4.50342551823083 3.48175208945367  7.26772448424281 5.47927908724465  C 10.5536287290358 3.43053467240554  10.5014730618909 0.357441916604038  12.0661430762381 0.357441916604038  C 15.2518190026221 0.357441916604038  13.1093536338 11.7279471658582  13.6309103052491 17.5156584910387  C 14.1524669766982 23.3033698162192  14.6219165883342 30.0130901140944  14.6219165883342 30.0130901140944  Z " fill-rule="nonzero" fill="#d1deed" stroke="none" transform="matrix(1 0 0 1 130 193 )" />
  </g>
</svg>