<?xml version="1.0" encoding="utf-8"?>
<svg version="1.1" xmlns:xlink="http://www.w3.org/1999/xlink" width="8px" height="6px" xmlns="http://www.w3.org/2000/svg">
  <g transform="matrix(1 0 0 1 -133 -192 )">
    <path d="M 6.64017183859397 0.50142962657819  L 6.64930631635582 0.403448749820658  L 7.65363557747489 0.49359070498565  C 7.54343300215209 1.721428176901  7.31191319691536 2.67672693375179  6.85349429662841 3.51664260093257  C 6.29487143830701 4.5401521133429  5.4224164189383 5.31213243507891  4.17537892826397 5.81706869296987  L 4.13628698708752 5.83276101757532  L 3.96059996449065 5.90267630021521  L 3.78226540746053 5.83982026362984  C 2.21470977510759 5.28731761441894  1.25452685616929 4.36383397898135  0.70041884612624 3.10289848310617  C 0.561012903156382 2.78566453680057  0.450401023314186 2.4564163446198  0.350125503945463 2.08187090853658  L 0.335034097202282 2.02489303647776  C 0.307573245695835 1.920090160868  0.281027796628393 1.81257639813486  0.251743470229542 1.68878944702296  L 0.140004840028695 1.20820939702296  L 0.12803285903874 1.15828982187948  C 0.0888108106169341 0.996184821018652  0.0561933142037105 0.876214720301292  0.0229083662123344 0.774354152618365  L 0.0179096918938342 0.759207888450501  L 0.974530049856526 0.440334435796267  C 1.01971692109038 0.575894988414632  1.06000097166427 0.722601907209469  1.10677055595409 0.915576851327113  L 1.1421047517934 1.06494273651363  C 1.17044520157819 1.18672916538737  1.21198690853657 1.36698912170014  1.2174116147776 1.39021314752511  L 1.24755599282639 1.51763930025108  C 1.2742197083931 1.6287282775825  1.29863137984216 1.72563491205165  1.32418699892395 1.82108943877331  C 1.41213794619799 2.14960055860832  1.50694271197992 2.43179721108321  1.62358153156384 2.69722201531564  C 2.04161799031564 3.64851132639885  2.73103062840747 4.34425305469871  3.8915074727403 4.80430731707317  L 3.93882281205165 4.82278263988522  L 3.94119246484934 4.82177810294117  C 4.88262706599713 4.41106328963414  5.52733529626971 3.82700004336442  5.95272434146341 3.06197146592539  L 5.96837935832136 3.03355431441894  C 6.33780847381635 2.35668579088953  6.5382081201578 1.55509291915351  6.64017183859397 0.50142962657819  Z " fill-rule="nonzero" fill="#c4d2e2" stroke="none" transform="matrix(1 0 0 1 133 192 )" />
  </g>
</svg>