<?xml version="1.0" encoding="utf-8"?>
<svg version="1.1" xmlns:xlink="http://www.w3.org/1999/xlink" width="7px" height="10px" xmlns="http://www.w3.org/2000/svg">
  <g transform="matrix(1 0 0 1 -122 -195 )">
    <path d="M 0.352237947309902 2.65414376312013  C 0.0264366526901085 1.62529456241033  0.554667261979915 0.513232565128743  1.53207404024391 0.170283833950009  C 2.50948081850788 -0.172664897228729  3.56593969713055 0.383367328022348  3.89174099175037 1.41221657819225  L 3.93888910401722 1.5602317896247  C 4.3817640649211 2.94227432115079  4.75722317431851 3.87722714754964  5.14564489347202 4.6049650385109  L 5.17308549354377 4.65599370799667  C 5.50222120803443 5.263480612399  5.80285361549497 5.68936840821566  6.53383709253944 6.6191579472174  C 7.19069585473457 7.45466304802537  7.0797399354376 8.69248875481386  6.28601008967001 9.38391903080872  C 5.49228024390243 10.0753493068036  4.31634586944045 9.95855355282036  3.6594870884505 9.12304850147247  L 3.51419695720946 8.93761950011326  C 2.75336142758249 7.96296055689798  2.36819468253228 7.40644069470663  1.93214865107603 6.60162909272823  L 1.89486005552368 6.53231512610435  C 1.36172818554519 5.53424325908026  0.885252983895271 4.33735413728007  0.352237947309902 2.65414376312013  Z " fill-rule="nonzero" fill="#f6ddd6" stroke="none" transform="matrix(1 0 0 1 122 195 )" />
  </g>
</svg>