<?xml version="1.0" encoding="utf-8"?>
<svg version="1.1" xmlns:xlink="http://www.w3.org/1999/xlink" width="12px" height="18px" xmlns="http://www.w3.org/2000/svg">
  <g transform="matrix(1 0 0 1 -134 -169 )">
    <path d="M 0.0804634770132729 4.37589705882353  C -0.0194596718857393 3.54848731979914  0.481774062753392 1.80050188220947  1.02826249142286 0.690605791822095  C 2.9404326617179 -0.15251923016858  7.39569109849666 1.64540690373027  9.63253795770691 5.85246628407461  C 9.63253795770691 5.85246628407461  10.2163382196993 7.51914526542324  11.0003770195246 9.12967467718795  C 11.2599418626411 9.66279017216643  11.4142392863826 11.1762912482066  11.5052880044913 12.6560555954089  C 11.636345206163 14.7872019368723  10.4873760838376 16.7835423242468  8.60658511633708 17.9276779053085  C 8.60658511633708 17.9276779053085  8.00160389245834 13.062305954089  5.73931046098183 10.3901032998565  C 3.78796531719792 8.08515172166428  1.28861181460919 6.19284074605452  0.503445324683407 5.19854698708752  C 0.313405027758711 4.95787912482066  0.116647620235782 4.67572166427547  0.0804634770132729 4.37589705882353  Z " fill-rule="nonzero" fill="#543415" stroke="none" transform="matrix(1 0 0 1 134 169 )" />
  </g>
</svg>