<?xml version="1.0" encoding="utf-8"?>
<svg version="1.1" xmlns:xlink="http://www.w3.org/1999/xlink" width="7px" height="10px" xmlns="http://www.w3.org/2000/svg">
  <g transform="matrix(1 0 0 1 -144 -195 )">
    <path d="M 1.82691718472023 4.65598436003926  C 2.23887952869441 3.89563381975383  2.63418292969871 2.90929858529034  3.10824016642755 1.41223146567998  C 3.43403364239597 0.383379445744917  4.49048831097562 -0.172661642754668  5.46789768292683 0.170278873102766  C 6.44530705487804 0.513219408744238  6.97354608895265 1.62527690515744  6.64775261298422 2.6541288756324  L 6.61065654232425 2.77077753530166  C 6.08638805810617 4.41222400551234  5.61477161262553 5.58512008608321  5.08651204519367 6.5670605935211  L 5.06784388737447 6.60163844068564  C 4.60486907209469 7.45614170693951  4.1992365936155 8.03075970928037  3.34044321090389 9.12307733670618  C 2.68356927187949 9.95856923166956  1.50763278299857 10.0753413437288  0.713915482783364 9.38389514158423  C -0.0798018644189256 8.6924489394397  -0.190735370875188 7.45462100694706  0.466138521162122 6.61912911198369  L 0.611389093974168 6.43372780827607  C 1.23099357998566 5.63967738692139  1.51347008285509 5.23170942762214  1.81557826076039 4.67686106924412  L 1.82691718472023 4.65598436003926  Z " fill-rule="nonzero" fill="#f6ddd6" stroke="none" transform="matrix(1 0 0 1 144 195 )" />
  </g>
</svg>