<?xml version="1.0" encoding="utf-8"?>
<svg version="1.1" xmlns:xlink="http://www.w3.org/1999/xlink" width="2px" height="5px" xmlns="http://www.w3.org/2000/svg">
  <g transform="matrix(1 0 0 1 -135 -205 )">
    <path d="M 0.530218592061222 0.494609175832931  C 0.393124304160665 0.390306351426746  0.383452356767104 0.2131381444285  0.50861580870397 0.0988929045114004  C 0.633779197991392 -0.015352335405707  0.846381046389297 -0.0234122915670317  0.983475334289816 0.0808905850470233  C 1.42309047202294 0.415354541288053  1.61024229698709 1.21787185995536  1.64397758488762 2.37506901602105  L 1.64501274175033 2.41252085724533  C 1.66702976327114 3.25481410290132  1.59302253180294 4.25309889287422  1.49173215399329 4.75941947911685  C 1.46120614681968 4.91201025466284  1.28802076374939 5.01508765582655  1.10491183309421 4.98964926430735  C 0.921802902439026 4.96421092499601  0.798110021042551 4.81988977243743  0.828636090865606 4.66729899689143  L 0.837246004782401 4.62254635421649  C 0.925511248684832 4.14599756974335  0.991304698708745 3.238237058425  0.973835275466286 2.46216741391679  L 0.97292472835962 2.42472079347999  C 0.946802163079838 1.42536276622031  0.783425929698713 0.70040760720548  0.538328250119548 0.500992580503742  L 0.530218592061222 0.494609175832931  Z " fill-rule="nonzero" fill="#b5c6da" stroke="none" transform="matrix(1 0 0 1 135 205 )" />
  </g>
</svg>