<?xml version="1.0" encoding="utf-8"?>
<svg version="1.1" xmlns:xlink="http://www.w3.org/1999/xlink" width="10px" height="5px" xmlns="http://www.w3.org/2000/svg">
  <g transform="matrix(1 0 0 1 -138 -230 )">
    <path d="M 9.62504946009212 4.97337398373983  C 9.78806992373327 4.97337398373983  9.92027674998111 3.98821138211383  9.92027674998111 3.81592539454807  C 9.92027674998111 2.09619799139168  8.87340444008155 1.88632233381158  7.16708072189081 1.29689542483661  C 6.33135354526919 1.0087079547266  5.47846371668051 0.756543918380351  4.6130604847844 0.605141080822575  C 4.06924677187949 0.510122748286316  3.92314165974477 1.01497289972901  2.96781998036699 1.01497289972901  C 2.11591935362076 1.01497289972901  1.05312089405722 0.569639725809026  0.833023484104812 0.473055157022155  C 0.805424752699531 0.461047345767582  0.772682171713355 0.450605770763591  0.750771350902345 0.472010999521757  C 0.745429660952937 0.477231787023745  0.740928792569662 0.483496732026146  0.737614966397323 0.49028375577873  C 0.635875556897974 0.711123067113025  0.101953862417878 1.91451458632233  0.101953862417878 2.87722780168979  C 0.101953862417878 3.61388091822094  0.0422060711319043 4.33800414474733  0.234605829494818 4.7123346086402  C 0.321457751264802 4.88148812370476  0.86358982103751 4.97337398373983  1.0456524201465 4.97337398373983  L 9.62504946009212 4.97337398373983  Z " fill-rule="nonzero" fill="#dedede" stroke="none" transform="matrix(1 0 0 1 138 230 )" />
  </g>
</svg>