<?xml version="1.0" encoding="utf-8"?>
<svg version="1.1" xmlns:xlink="http://www.w3.org/1999/xlink" width="2px" height="2px" xmlns="http://www.w3.org/2000/svg">
  <g transform="matrix(1 0 0 1 -142 -229 )">
    <path d="M 1.63914873840266 0.327881822453378  C 1.49341841176469 0.179295683285503  1.28303660927785 0.0986103963414564  1.02491774270682 0.0986103963414564  C 0.500676980870404 0.0986103963414564  0.102840568627433 0.432740603299862  0.093442587278787 0.884523517216635  L 0.0928325695839097 0.961487661764707  C 0.0924255361071194 0.989536791606881  0.0917151539933154 1.02110422058824  0.0906162826398713 1.06427426506457  L 0.0905785676709456 1.06911764705882  L 0.0884669679578944 1.16931314741751  C 0.0882985035868084 1.18386932424677  0.0882647981826873 1.19721816786227  0.0883242525107638 1.21104966284075  C 0.0886888723099067 1.31552103515064  0.096712199426103 1.38815019799139  0.117505990435196 1.4474126151363  C 0.141351749402171 1.51565562733143  0.182306697274043 1.56433002116212  0.245669223338117 1.59738872632711  C 0.315192571018656 1.63317658249642  0.411059636537554 1.6505718131277  0.541827833572446 1.6505718131277  C 0.816328278335732 1.6505718131277  1.14326505977999 1.57416051865137  1.39777600717359 1.44687029017217  C 1.68468712003823 1.30396174175036  1.85312874940219 1.11302928873745  1.85312874940219 0.90090387374461  C 1.85312874940219 0.67058101757533  1.77866373840266 0.470456386657105  1.63914873840266 0.327881822453378  Z M 0.507355913438535 0.90090387374461  C 0.507355913438535 0.604084938307025  0.735789779053069 0.409172960903874  1.02491774270682 0.409172960903874  C 1.15066408512674 0.409172960903874  1.23749290243901 0.442473414634151  1.30545464992827 0.511766917144911  C 1.38842444906743 0.596556338235303  1.43904532998564 0.732600026183647  1.43904532998564 0.90090387374461  C 1.43904532998564 0.996608489239591  1.34950974318508 1.09809909469153  1.16836562458154 1.18832604949785  C 0.98062345384983 1.28222246090387  0.733374204208493 1.34000924856528  0.541827833572446 1.34000924856528  L 0.523049725968425 1.3398122786944  L 0.510753706360598 1.33938737446198  L 0.510121949306532 1.33562413163558  C 0.505771571496894 1.30925267575323  0.503157773792433 1.27337549713056  0.50253823338115 1.22626441068867  L 0.502518937350525 1.17379331922525  C 0.502782440937343 1.14821697883788  0.503442766140589 1.11807621879484  0.504623582974659 1.07210875107604  L 0.504661987087502 1.0672381635581  L 0.506994864658054 0.957458378048784  C 0.507243395026308 0.938328901004297  0.507355913438535 0.920269836800571  0.507355913438535 0.90090387374461  Z " fill-rule="nonzero" fill="#cdc7bb" stroke="none" transform="matrix(1 0 0 1 142 229 )" />
  </g>
</svg>