<?xml version="1.0" encoding="utf-8"?>
<svg version="1.1" xmlns:xlink="http://www.w3.org/1999/xlink" width="4px" height="2px" xmlns="http://www.w3.org/2000/svg">
  <g transform="matrix(1 0 0 1 -130 -230 )">
    <path d="M 2.51294103463822 0.64298278766141  C 2.4292106353761 0.598406325681495  2.40263242959622 0.502877676829272  2.45357695757327 0.429613577474896  C 2.50270203812254 0.358966048063124  2.60597310514449 0.334818491033005  2.68836278827627 0.37315271843616  L 2.94867093092846 0.504917480272596  C 2.96198293666735 0.511763451936872  2.97345133019059 0.517728321736016  2.98220800491903 0.52239023959828  C 3.30579626275874 0.694662381635581  3.48165534535766 0.850702364418936  3.48165534535766 1.06853299856527  C 3.48165534535766 1.16540054447633  3.38174747981144 1.23785562015782  3.27423125025621 1.22159301327116  L 3.2644386579217 1.21986839921091  L 1.99703709776593 0.964973457675754  L 2.36739044927237 1.38807794368724  C 2.4693743922935 1.50460328945481  2.34689462799754 1.66671757496414  2.18688111100635 1.63387548027259  L 2.17795404230375 1.63184878622668  L 0.921918835827 1.3193030846485  L 1.19891954138143 1.55972379483501  C 1.26592639848328 1.61788210939741  1.26882982459519 1.71120607711622  1.20731858798932 1.7724075573888  L 1.19993525722485 1.77932288199426  C 1.13346859053084 1.8379538866571  1.02681265964335 1.84049438450502  0.956868094650547 1.78667203837877  L 0.948964861160058 1.78021164275467  L 0.182941085796269 1.11534435437589  C 0.0549891032588416 1.00428891642754  0.17575380127073 0.818395875538016  0.347380679032572 0.853678103658538  L 0.356459567042423 0.855740883787661  L 1.76011477761836 1.20498350071736  L 1.41569830379175 0.811480879842179  C 1.3164706179545 0.698104796628414  1.42993184714081 0.539156829985657  1.5873874998565 0.564123043041604  L 1.59634593982371 0.565734183285514  L 2.85418897315023 0.818702654232425  L 2.8518658241443 0.817373953371586  C 2.84037761549497 0.810883486011477  2.82852704242672 0.804323430774744  2.81631372904284 0.797695573170728  L 2.79772155605656 0.787703017216643  C 2.74251725927443 0.758313298780493  2.5483487317073 0.661833161406022  2.51294103463822 0.64298278766141  Z " fill-rule="nonzero" fill="#cdc7bb" stroke="none" transform="matrix(1 0 0 1 130 230 )" />
  </g>
</svg>