<?xml version="1.0" encoding="utf-8"?>
<svg version="1.1" xmlns:xlink="http://www.w3.org/1999/xlink" width="3px" height="3px" xmlns="http://www.w3.org/2000/svg">
  <g transform="matrix(1 0 0 1 -134 -205 )">
    <path d="M 0.220916816212321 1.08585793256815  L 0.209120726685785 1.10646156370158  C -0.1366403913917 1.72354379225251  0.233088144619796 2.33509216355811  0.898280395695827 2.45492976068867  C 1.55159536355811 2.57262756585366  2.22479725911048 2.19083178723099  2.56981545494976 1.40621202352941  C 2.62772572467717 1.27451597560975  2.58487496685797 1.12025383385939  2.46733763199425 1.03729339454807  C 2.16424097733143 0.823361166284073  1.77754200215207 0.645348912482064  1.41960746944044 0.585273646915351  C 0.911874192395987 0.500056305021519  0.475365540172163 0.650854746628408  0.220916816212321 1.08585793256815  Z M 1.31946193515064 1.18195049225251  L 1.3473609882353 1.18697305480631  C 1.51577304705883 1.21930443744619  1.70191854017214 1.29080968794835  1.87425236685797 1.38214176025825  L 1.89318464849355 1.39230602582496  L 1.88309543070301 1.40786132668579  C 1.64509474347202 1.76629503142037  1.31400149053083 1.91506137546629  1.0055512398852 1.85949258507891  C 0.721202376757538 1.80826579626972  0.611284054519365 1.62645570774749  0.736932977044455 1.40220923113342  C 0.850432786657109 1.19965353529412  1.0349216466284 1.13419360588235  1.31946193515064 1.18195049225251  Z " fill-rule="nonzero" fill="#b5c6da" stroke="none" transform="matrix(1 0 0 1 134 205 )" />
  </g>
</svg>