<?xml version="1.0" encoding="utf-8"?>
<svg version="1.1" xmlns:xlink="http://www.w3.org/1999/xlink" width="2px" height="2px" xmlns="http://www.w3.org/2000/svg">
  <g transform="matrix(1 0 0 1 -131 -229 )">
    <path d="M 1.69949577295552 0.90090387374461  C 1.69949577295552 0.440840425394555  1.39867950502151 0.0986103963414564  1.00076183644188 0.0986103963414564  C 0.806922879662835 0.0986103963414564  0.649010292288381 0.179518496054527  0.539965163988512 0.328520095050223  C 0.435412607388798 0.470980386657104  0.379603581420355 0.670672031563853  0.379603581420355 0.90090387374461  C 0.379603581420355 1.11290312840747  0.505758075609748 1.30372769906744  0.721118222668565 1.44734020803443  C 0.912326955057381 1.57432530236728  1.1574796079627 1.6505718131277  1.36307926829267 1.6505718131277  C 1.46115541606886 1.6505718131277  1.53305571520804 1.63317658249642  1.58438732281203 1.59794900035868  C 1.6327201205165 1.56433002116212  1.66343633142037 1.51565562733143  1.68136082460543 1.44725957819225  C 1.69589886441892 1.39179329483501  1.70209025896699 1.32456496879483  1.70307792754662 1.23026258895266  L 1.70317382819223 1.1801089946198  L 1.69977116427546 0.955976358321379  L 1.69949577295552 0.90090387374461  Z M 0.790459464060262 0.512100243543756  C 0.841409301578182 0.442481543400291  0.906419395408875 0.409172960903874  1.00076183644188 0.409172960903874  C 1.2176078091822 0.409172960903874  1.3889332083931 0.604084938307025  1.3889332083931 0.90090387374461  L 1.38921809110474 0.958562151721665  L 1.39249393687231 1.16600873350072  C 1.3926475846485 1.1818993436155  1.3926919874462 1.19578914956958  1.39264598708752 1.21004789813486  L 1.39255290566715 1.2247574408178  C 1.39209055272596 1.272633758967  1.39011512159254 1.30901243077474  1.38682973744619 1.33565129017217  L 1.38629088952655 1.33938737446198  L 1.38148462733142 1.33966370552368  C 1.37584561298422 1.33988783393113  1.36971403299856 1.34000924856528  1.36307926829267 1.34000924856528  C 1.21953926040172 1.34000924856528  1.03395492467718 1.28228946449067  0.89317500408896 1.18879530954089  C 0.757335258895267 1.09821050107604  0.690166145982772 0.996608724175033  0.690166145982772 0.90090387374461  C 0.690166145982772 0.732718245695835  0.72806235035867 0.597121310975609  0.790459464060262 0.512100243543756  Z " fill-rule="nonzero" fill="#cdc7bb" stroke="none" transform="matrix(1 0 0 1 131 229 )" />
  </g>
</svg>