<?xml version="1.0" encoding="utf-8"?>
<svg version="1.1" xmlns:xlink="http://www.w3.org/1999/xlink" width="10px" height="5px" xmlns="http://www.w3.org/2000/svg">
  <g transform="matrix(1 0 0 1 -126 -230 )">
    <path d="M 0.625606169296987 4.97337398373983  C 0.470736728837863 4.97337398373983  0.34518723098995 3.98821138211383  0.34518723098995 3.81592539454807  C 0.34518723098995 2.09619799139168  1.33971592539453 1.88632233381158  2.96067647058823 1.2974175035868  C 3.75461728837877 1.0087079547266  4.56486262553801 0.756543918380351  5.38699569583932 0.605663159572774  C 5.90366571018652 0.510122748286316  6.0424655667145 1.01497289972901  6.94997417503586 1.01497289972901  C 7.75927977044475 1.01497289972901  8.76898529411764 0.569639725809026  8.97803084648493 0.473055157022155  C 9.00429662840745 0.461047345767582  9.03535509325681 0.450605770763591  9.05621736011477 0.472010999521757  C 9.06129196556671 0.477231787023745  9.06552080344332 0.483496732026146  9.06866893830701 0.49028375577873  C 9.16532137733142 0.711123067113025  9.67259397417502 1.91451458632233  9.67259397417502 2.87722780168979  C 9.67259397417502 3.61388091822094  9.72935437589669 4.33800414474733  9.54652761836442 4.7123346086402  C 9.46401829268291 4.88148812370476  8.94899282639884 4.97337398373983  8.77608034433285 4.97337398373983  L 0.625606169296987 4.97337398373983  Z " fill-rule="nonzero" fill="#dedede" stroke="none" transform="matrix(1 0 0 1 126 230 )" />
  </g>
</svg>