<?xml version="1.0" encoding="utf-8"?>
<svg version="1.1" xmlns:xlink="http://www.w3.org/1999/xlink" width="4px" height="21px" xmlns="http://www.w3.org/2000/svg">
  <g transform="matrix(1 0 0 1 -139 -212 )">
    <path d="M 0.259893169655669 1.84336179340029  C 0.0907421449067272 1.02530724928264  0.616782371233853 0.225019039813489  1.4348369153515 0.0558680620516441  C 2.25289145946914 -0.113282962697269  3.0531796689383 0.412757263629842  3.22233064670013 1.23081180774749  C 3.53681080667144 2.75171259827833  3.6887005609756 6.07743670982784  3.67442353443329 10.0646331047346  C 3.66091850573886 13.8362129440459  3.49679984505022 17.4452814569584  3.23847963880917 19.2545936893831  C 3.1204105322812 20.0815670405308  2.3543021868723 20.656247501076  1.52732883572452 20.538178347561  C 0.700355484576761 20.420109241033  0.125675024031551 19.6540008956241  0.243744177546631 18.8270275444763  C 0.757927588235276 15.2256119124821  0.8007133723099 4.67666376506456  0.275968345050217 1.92436316248207  L 0.259893169655669 1.84336179340029  Z " fill-rule="nonzero" fill="#f6ddd6" stroke="none" transform="matrix(1 0 0 1 139 212 )" />
  </g>
</svg>