<?xml version="1.0" encoding="utf-8"?>
<svg version="1.1" xmlns:xlink="http://www.w3.org/1999/xlink" width="4px" height="2px" xmlns="http://www.w3.org/2000/svg">
  <g transform="matrix(1 0 0 1 -142 -230 )">
    <path d="M 0.769331895060467 0.514484474175035  C 0.842463242467699 0.476401815638454  1.0118459471203 0.392172621592536  1.03908696618159 0.377670010043033  C 1.12281736544375 0.333093548063133  1.231992964132 0.356349478120521  1.28293749210902 0.429613577474896  C 1.33388202008609 0.502877676829272  1.30730381430619 0.598406325681495  1.22357341504406 0.64298278766141  L 0.973012273826596 0.769918028694406  C 0.959024942816151 0.777088164275469  0.947243158844003 0.78319709648494  0.938751222791552 0.787717771162121  L 0.902109779053067 0.807600639167859  L 0.88232547653206 0.81865566714491  L 2.14016964828858 0.565733995337155  C 2.29925342775157 0.533741239239603  2.41749441975815 0.690050927905304  2.32617402172575 0.805057979913911  L 2.32077995777822 0.811522181492109  L 1.97650707112111 1.20460760401721  L 3.3801003554007 0.855729559899572  C 3.55344023201474 0.812642024748925  3.67934897970895 0.995857835365854  3.56007824554211 1.10943262697273  L 3.55357335314612 1.11534435437589  L 2.78754957778233 1.78021164275467  C 2.71796556753433 1.84060682460546  2.6056022574298 1.84020893794835  2.53657919245747 1.77932288199426  C 2.47011254724329 1.72069187733142  2.46807250215209 1.62735043041607  2.53014786841566 1.56658658787661  L 2.53759491904079 1.55972379483501  L 2.81481041196964 1.31906814921091  L 1.55846123508916 1.63139023923959  C 1.39710365648697 1.67149930989957  1.26988485509326 1.51219245588236  1.36366775240828 1.39408439705882  L 1.36910649436358 1.38756677116213  L 1.73910145521622 0.965020444763269  L 0.472020964541896 1.21986858715925  C 0.364128623488406 1.24156642539455  0.261048297192052 1.17259863737446  0.255078037302707 1.07727005954089  L 0.254805404796051 1.06853299856527  C 0.254805404796051 0.855339144189387  0.423265175650743 0.701338870875176  0.733817926624299 0.533375538737445  L 0.769331895060467 0.514484474175035  Z " fill-rule="nonzero" fill="#cdc7bb" stroke="none" transform="matrix(1 0 0 1 142 230 )" />
  </g>
</svg>