<?xml version="1.0" encoding="utf-8"?>
<svg version="1.1" xmlns:xlink="http://www.w3.org/1999/xlink" width="5px" height="2px" xmlns="http://www.w3.org/2000/svg">
  <g transform="matrix(1 0 0 1 -134 -192 )">
    <path d="M 4.08471047704447 0.33095397005021  L 4.08896060007174 0.321340975789091  C 4.15919948278335 0.154531801578187  4.35136487697275 0.0762461217001373  4.51817406527977 0.146485004411762  C 4.68498325358681 0.216723891822092  4.76326890997132 0.408889309505017  4.69303002725968 0.575698479017213  C 4.4278694408178 1.20542403066714  3.38253990494979 1.60814460186513  2.24819619799138 1.60814460186513  C 1.22209951076042 1.60814460186513  0.35010848888092 1.14666392898134  0.148171847919656 0.554256306922522  C 0.0897751678622569 0.382941897991387  0.181313062410339 0.196724256205162  0.352627466642758 0.138327552654228  C 0.520296894548068 0.081173338055951  0.70224208034432 0.167641386944041  0.764656532281208 0.331957205451932  L 0.768556225609757 0.342783147883782  C 0.804275903515077 0.447571551470585  0.950221321377342 0.594122007962692  1.17570229913918 0.71345247815638  C 1.46088098242467 0.864376572632708  1.83000153371592 0.952707621951216  2.24819619799138 0.952707621951216  C 3.13819727654231 0.952707621951216  3.93784434720229 0.648066746054514  4.08471047704447 0.33095397005021  Z " fill-rule="nonzero" fill="#37383a" stroke="none" transform="matrix(1 0 0 1 134 192 )" />
  </g>
</svg>