<?xml version="1.0" encoding="utf-8"?>
<svg version="1.1" xmlns:xlink="http://www.w3.org/1999/xlink" width="4px" height="4px" xmlns="http://www.w3.org/2000/svg">
  <g transform="matrix(1 0 0 1 -121 -193 )">
    <path d="M 3.29258548583215 0.662535509325679  L 2.01061798224535 0.936329268292678  C 1.93501105972024 0.582328550932562  2.16069473977763 0.234060258249638  2.5147001558465 0.158458034433281  C 2.86870557191534 0.0828558106169268  3.21697386459829 0.308534791965563  3.29258548583215 0.662535509325679  Z M 1.41416389329268 0.872567790530841  L 0.381857581463407 1.68051076040172  C 0.158754902123377 1.39544010043041  0.208984098914982 0.983504304160686  0.494048650329972 0.760409612625534  C 0.779109911944033 0.537314921090385  1.19106450304878 0.587544117647056  1.41416389329268 0.872567790530841  Z M 3.75681321180056 2.80857675753228  L 2.4810996895624 3.1101868723099  C 2.42897691337876 2.88972345767575  2.14429154752511 1.56219727403156  2.01061798224535 0.936329268292678  L 3.29258548583215 0.662535509325679  C 3.42883864221665 1.30047919655667  3.70898975412481 2.60629734576757  3.75681321180056 2.80857675753228  Z M 2.9418127813845 2.69820408895265  L 2.10220051452654 3.70490243902439  C 1.51027128210185 3.21120911047345  1.15242702098277 2.66507819225251  0.381857581463407 1.68051076040172  L 1.41416389329268 0.872567790530841  C 2.2701652562769 1.96633321377331  2.49118781725252 2.32235437589669  2.9418127813845 2.69820408895265  Z " fill-rule="nonzero" fill="#f6ddd6" stroke="none" transform="matrix(1 0 0 1 121 193 )" />
  </g>
</svg>