<?xml version="1.0" encoding="utf-8"?>
<svg version="1.1" xmlns:xlink="http://www.w3.org/1999/xlink" width="4px" height="4px" xmlns="http://www.w3.org/2000/svg">
  <g transform="matrix(1 0 0 1 -148 -193 )">
    <path d="M 0.707433285509325 0.662535509325679  L 1.98938199426112 0.936329268292678  C 2.06498421807748 0.582328550932562  1.83930523672885 0.234060258249638  1.48530451936873 0.158458034433281  C 1.1313038020086 0.0828558106169268  0.783035509325686 0.308534791965563  0.707433285509325 0.662535509325679  Z M 2.58583608321376 0.872567790530841  L 3.61814239598277 1.68051076040172  C 3.84123708751792 1.39544010043041  3.79100789096125 0.983504304160686  3.50593723098996 0.760409612625534  C 3.22086657101866 0.537314921090385  2.80893077474892 0.587544117647056  2.58583608321376 0.872567790530841  Z M 0.243200860832133 2.80857675753228  L 1.51890028694405 3.1101868723099  C 1.57100896700143 2.88972345767575  1.85570373027261 1.56219727403156  1.98938199426112 0.936329268292678  L 0.707433285509325 0.662535509325679  C 0.571170731707326 1.30047919655667  0.290986728837879 2.60629734576757  0.243200860832133 2.80857675753228  Z M 1.0581918938307 2.69820408895265  L 1.89780416068868 3.70490243902439  C 2.48970050215209 3.21120911047345  2.84755416068867 2.66507819225251  3.61814239598277 1.68051076040172  L 2.58583608321376 0.872567790530841  C 1.72982532281205 1.96633321377331  1.5087980631277 2.32235437589669  1.0581918938307 2.69820408895265  Z " fill-rule="nonzero" fill="#f6ddd6" stroke="none" transform="matrix(1 0 0 1 148 193 )" />
  </g>
</svg>