<?xml version="1.0" encoding="utf-8"?>
<svg version="1.1" xmlns:xlink="http://www.w3.org/1999/xlink" width="7px" height="6px" xmlns="http://www.w3.org/2000/svg">
  <g transform="matrix(1 0 0 1 -383 -150 )">
    <path d="M 6.46261538461539 3  C 6.46261538461539 1.346  5.01307692307692 0  3.23184615384615 0  C 1.45061538461538 0  0.00107692307692248 1.346  0.00107692307692248 3  C 0.00107692307692248 4.654  1.45061538461538 6  3.23184615384615 6  C 5.01307692307692 6  6.46261538461539 4.654  6.46261538461539 3  Z M 5.41261538461538 3  C 5.41083612401458 4.11769155164069  4.43551397868997 5.0233478294421  3.23184615384615 5.025  C 2.02817832900234 5.0233478294421  1.05285618367773 4.11769155164069  1.05107692307692 3  C 1.05107692307692 1.883  2.02892307692308 0.975  3.23184615384615 0.975  C 4.43476923076923 0.975  5.41261538461538 1.883  5.41261538461538 3  Z " fill-rule="nonzero" fill="#ffffff" stroke="none" transform="matrix(1 0 0 1 383 150 )" />
  </g>
</svg>