<?xml version="1.0" encoding="utf-8"?>
<svg version="1.1" xmlns:xlink="http://www.w3.org/1999/xlink" width="21px" height="20px" xmlns="http://www.w3.org/2000/svg">
  <g transform="matrix(1 0 0 1 -376 -143 )">
    <path d="M 20.0626829268293 11.936  C 19.2369760288009 11.6329578335415  18.6909507565515 10.8611285424834  18.6930731707317 10  C 18.6930731707317 9.136  19.2308780487805 8.376  20.0626829268293 8.064  L 20.4888292682927 7.904  L 20.3761463414634 7.473  C 20.1307739263228 6.5315208478898  19.748186837345 5.62931415661425  19.2400975609756 4.794  L 19.0075609756098 4.411  L 18.5906341463415 4.592  C 18.3160975609756 4.712  18.0190243902439 4.774  17.7178536585366 4.773  C 17.1556648416604 4.774839727586  16.6161945060127 4.55655297168246  16.2201951219512 4.167  C 15.594740457018 3.55977396627091  15.4219354137498 2.63696040806825  15.7868780487805 1.853  L 15.9722926829268 1.445  L 15.5789268292683 1.218  C 14.7225152705939 0.722946387693272  13.7980575138392 0.349845224101824  12.8335609756098 0.11  L 12.3930731707317 0  L 12.2291707317073 0.415  C 11.917962921871 1.22103792175878  11.1273241433982 1.75417534720138  10.2449268292683 1.753  C 9.36279515160233 1.75507188050926  8.57214075588436 1.22204720998005  8.26170731707317 0.416  L 8.09780487804878 0  L 7.65629268292683 0.11  C 6.69234146341463 0.35  5.76834146341463 0.723  4.9129756097561 1.219  L 4.52063414634146 1.446  L 4.7050243902439 1.853  C 5.06934914330388 2.63703478746154  4.89661101467019 3.5594910081073  4.27170731707317 4.167  C 3.6465354346461 4.77231799017919  2.70490127729163 4.94107223467062  1.90024390243902 4.592  L 1.48536585365854 4.412  L 1.25180487804878 4.794  C 0.742618593631912 5.62889569200701  0.3596399401412 6.53121212960389  0.114731707317073 7.473  L 0.00204878048780504 7.903  L 0.426146341463415 8.063  C 1.2518437247285 8.36679810007834  1.79798450201117 9.13861214573029  1.79678048780488 10  C 1.79678048780488 10.864  1.2589756097561 11.624  0.427170731707317 11.936  L 0.00102439024390233 12.096  L 0.113707317073171 12.527  C 0.359560975609756 13.469  0.741658536585366 14.371  1.24873170731707 15.206  L 1.48229268292683 15.589  L 1.89921951219512 15.408  C 2.17375609756098 15.288  2.47082926829268 15.226  2.772 15.227  C 3.33383398772332 15.2254281545366  3.87288444876868 15.4436943087548  4.26863414634146 15.833  C 4.89556097560976 16.444  5.06560975609756 17.353  4.7029756097561 18.147  L 4.51653658536585 18.554  L 4.90990243902439 18.782  C 5.76629268292683 19.277  6.69131707317073 19.65  7.65526829268293 19.89  L 8.09678048780488 20  L 8.26068292682927 19.585  C 8.57213469576364 18.7791482290391  9.36262150901763 18.2461132756074  10.2449268292683 18.247  C 11.13 18.247  11.9085365853659 18.772  12.2281463414634 19.584  L 12.3920487804878 20  L 12.8335609756098 19.89  C 13.7985365853659 19.65  14.7225365853659 19.277  15.5779024390244 18.782  L 15.970243902439 18.554  L 15.7848292682927 18.147  C 15.4205045152327 17.3629652125385  15.5932426438664 16.4405089918927  16.2181463414634 15.833  C 16.8438762250376 15.2287254810426  17.7848104470792 15.0600966749223  18.5896097560976 15.408  L 19.005512195122 15.588  L 19.2380487804878 15.206  C 19.7471707317073 14.371  20.1313170731707 13.469  20.3751219512195 12.527  L 20.4878048780488 12.096  L 20.0626829268293 11.936  Z M 18.5619512195122 14.338  L 18.5629756097561 14.338  C 18.2877416362955 14.2635838910466  18.0034493821718 14.2259079882779  17.7178536585366 14.226  C 16.8829381424115 14.22342170534  16.0816975633909 14.547162458893  15.4928780487805 15.125  C 14.6860020187114 15.9066409757564  14.3773040184772 17.0542141643199  14.6866829268293 18.122  C 14.1442435418779 18.4047585730715  13.5746839775839 18.6348616173553  12.9861951219512 18.809  C 12.4316910281049 17.8400403545581  11.3818937452162 17.2414732031651  10.2449268292683 17.246  C 9.09146341463415 17.246  8.05990243902439 17.846  7.50468292682927 18.809  C 6.91477614750753 18.6347196687367  6.34383826288254 18.4042793091685  5.80009756097561 18.121  C 6.09951777135653 17.05363056783  5.79254850811821 15.9114133008016  4.99492682926829 15.125  C 4.19107605879622 14.3426819081597  3.01889628064886 14.0418192655775  1.92482926829268 14.337  C 1.63498064201993 13.8072170797439  1.39925868904875 13.2508678484661  1.22107317073171 12.676  C 2.21390178645183 12.134800393247  2.82742999718543 11.1100491271277  2.82321951219512 10  C 2.82321951219512 8.874  2.20756097560976 7.867  1.22107317073171 7.325  C 1.39969434888204 6.7491872130267  1.6364665223959 6.19211898988332  1.92790243902439 5.662  C 2.20243902439024 5.737  2.48619512195122 5.774  2.772 5.774  C 3.60691551612511 5.77657829466  4.40815609514572 5.45283754110698  4.9969756097561 4.875  C 5.80404877357881 4.09346999282502  6.1127771902937 2.94578373214021  5.80317073170732 1.878  C 6.34554222552229 1.59510119476004  6.91511620107809 1.36499232830163  7.50365853658537 1.191  C 8.05789551960961 2.16034547933817  9.10774422467302 2.75932492950799  10.2449268292683 2.755  C 11.3983902439024 2.755  12.4299512195122 2.154  12.9851707317073 1.191  C 13.5750575024167 1.36533502690926  14.1459899939734 1.59577320974228  14.689756097561 1.879  C 14.390074475323 2.94619101368655  14.6966459061403 4.08838113427742  15.4939024390244 4.875  C 16.2976428317014 5.65750604624059  17.469934389659 5.95839737927596  18.564 5.663  C 18.8549268292683 6.193  19.0905365853659 6.749  19.2687804878049 7.324  C 18.2760281384704 7.8651428410353  17.6628012861644 8.89004606937532  17.6676585365854 10  C 17.6676585365854 11.128  18.2822926829268 12.135  19.2687804878049 12.676  C 19.0900004748471 13.2514365998887  18.8532333433989 13.8081579895071  18.5619512195122 14.338  Z " fill-rule="nonzero" fill="#ffffff" stroke="none" transform="matrix(1 0 0 1 376 143 )" />
  </g>
</svg>