<?xml version="1.0" encoding="utf-8"?>
<svg version="1.1" xmlns:xlink="http://www.w3.org/1999/xlink" width="11px" height="4px" xmlns="http://www.w3.org/2000/svg">
  <g transform="matrix(1 0 0 1 -126 -230 )">
    <path d="M 2.97618764091002 2.14367288378766  L 1.60287142173943 2.14367288378766  C 0.784168408826929 2.14367288378766  0.555323392771738 1.62493543758967  0.4672606408417 1.53847919655668  C 0.308806756849086 1.74038942406231  0.440876272460184 2.55286329165813  0.335240349798461 2.92177905308465  C 0.229604427136708 3.29015781922525  0.379247113479521 3.65155564664891  0.4672606408417 3.78580446812871  L 10.6085553392088 3.78580446812871  C 10.6525621028899 3.01736421397827  10.2942072487532 0.38877228940357  9.94830621028898 0.472543554006969  C 8.99758290633326 0.702914531666327  6.85838163558106 0.616458290633326  6.40945357655257 0.587997540479608  C 6.0502619047619 0.564906743185085  4.30549709639954 1.05840541094487  3.47798288583727 1.30810821889732  C 3.58361880849902 1.42356220536996  3.75792300334766 2.01103504816561  3.82127502220401 2.28758762041403  C 3.90052657648425 2.63341258454601  3.92691094486573 2.63341258454601  3.63643676982988 2.71986882557902  C 3.34591337022614 2.80632506661202  3.29309540889525 2.14367288378766  2.97618764091002 2.14367288378766  Z " fill-rule="nonzero" fill="#e9eaeb" stroke="none" transform="matrix(1 0 0 1 126 230 )" />
  </g>
</svg>