<?xml version="1.0" encoding="utf-8"?>
<svg version="1.1" xmlns:xlink="http://www.w3.org/1999/xlink" width="10px" height="4px" xmlns="http://www.w3.org/2000/svg">
  <g transform="matrix(1 0 0 1 -138 -230 )">
    <path d="M 7.42849677187948 2.14367288378766  L 8.73938952654231 2.14367288378766  C 9.52087876614058 2.14367288378766  9.73936872309898 1.62493543758967  9.82338163558106 1.53847919655668  C 9.97463307030128 1.74038942406231  9.84861370157819 2.55286329165813  9.94944799139165 2.92177905308465  C 10.0502822812051 3.29015781922525  9.90744153515064 3.65155564664891  9.82338163558106 3.78580446812871  L 0.235572453371589 3.78580446812871  C 0.193565997130548 3.01736421397827  0.694542324246754 0.349571633531468  0.790208034433277 0.386087312973976  C 1.84896807747486 0.789370772699328  3.63884720229552 0.587997540479608  4.06741642754662 0.55899979503997  C 4.41023421807745 0.535908997745439  6.15965746054519 1.05840541094487  6.94955738880915 1.30810821889732  C 6.84872309899569 1.42356220536996  6.68234182209468 2.01103504816561  6.62182245337158 2.28758762041403  C 6.54622022955522 2.63341258454601  6.52098816355809 2.63341258454601  6.79830595408893 2.71986882557902  C 7.07557675753228 2.80632506661202  7.12599390243901 2.14367288378766  7.42849677187948 2.14367288378766  Z " fill-rule="nonzero" fill="#e9eaeb" stroke="none" transform="matrix(1 0 0 1 138 230 )" />
  </g>
</svg>