<?xml version="1.0" encoding="utf-8"?>
<svg version="1.1" xmlns:xlink="http://www.w3.org/1999/xlink" width="12px" height="12px" viewBox="202 267.5  12 12" xmlns="http://www.w3.org/2000/svg">
  <path d="M 208 267.5  C 211.36 267.5  214 270.14  214 273.5  C 214 276.86  211.36 279.5  208 279.5  C 204.64 279.5  202 276.86  202 273.5  C 202 270.14  204.64 267.5  208 267.5  Z " fill-rule="nonzero" fill="#ffffff" stroke="none" />
  <path d="M 208 268  C 211.08 268  213.5 270.42  213.5 273.5  C 213.5 276.58  211.08 279  208 279  C 204.92 279  202.5 276.58  202.5 273.5  C 202.5 270.42  204.92 268  208 268  Z " stroke-width="1" stroke="#797979" fill="none" />
  <path d="M 208 276.5  C 206.32 276.5  205 275.18  205 273.5  C 205 271.82  206.32 270.5  208 270.5  C 209.68 270.5  211 271.82  211 273.5  C 211 275.18  209.68 276.5  208 276.5  " fill-rule="nonzero" fill="#797979" stroke="none" />
</svg>