<?xml version="1.0" encoding="utf-8"?>
<svg version="1.1" xmlns:xlink="http://www.w3.org/1999/xlink" width="12px" height="12px" viewBox="202 361.5  12 12" xmlns="http://www.w3.org/2000/svg">
  <path d="M 208 361.5  C 211.36 361.5  214 364.14  214 367.5  C 214 370.86  211.36 373.5  208 373.5  C 204.64 373.5  202 370.86  202 367.5  C 202 364.14  204.64 361.5  208 361.5  Z " fill-rule="nonzero" fill="#ffffff" stroke="none" />
  <path d="M 208 362  C 211.08 362  213.5 364.42  213.5 367.5  C 213.5 370.58  211.08 373  208 373  C 204.92 373  202.5 370.58  202.5 367.5  C 202.5 364.42  204.92 362  208 362  Z " stroke-width="1" stroke="#797979" fill="none" />
  <path d="M 208 370.5  C 206.32 370.5  205 369.18  205 367.5  C 205 365.82  206.32 364.5  208 364.5  C 209.68 364.5  211 365.82  211 367.5  C 211 369.18  209.68 370.5  208 370.5  " fill-rule="nonzero" fill="#797979" stroke="none" />
</svg>