<?xml version="1.0" encoding="utf-8"?>
<svg version="1.1" xmlns:xlink="http://www.w3.org/1999/xlink" width="12px" height="12px" viewBox="202 293.5  12 12" xmlns="http://www.w3.org/2000/svg">
  <path d="M 208 293.5  C 211.36 293.5  214 296.14  214 299.5  C 214 302.86  211.36 305.5  208 305.5  C 204.64 305.5  202 302.86  202 299.5  C 202 296.14  204.64 293.5  208 293.5  Z " fill-rule="nonzero" fill="#ffffff" stroke="none" />
  <path d="M 208 294  C 211.08 294  213.5 296.42  213.5 299.5  C 213.5 302.58  211.08 305  208 305  C 204.92 305  202.5 302.58  202.5 299.5  C 202.5 296.42  204.92 294  208 294  Z " stroke-width="1" stroke="#797979" fill="none" />
  <path d="M 208 302.5  C 206.32 302.5  205 301.18  205 299.5  C 205 297.82  206.32 296.5  208 296.5  C 209.68 296.5  211 297.82  211 299.5  C 211 301.18  209.68 302.5  208 302.5  " fill-rule="nonzero" fill="#797979" stroke="none" />
</svg>