<?xml version="1.0" encoding="utf-8"?>
<svg version="1.1" xmlns:xlink="http://www.w3.org/1999/xlink" width="12px" height="12px" viewBox="202 391.5  12 12" xmlns="http://www.w3.org/2000/svg">
  <path d="M 208 391.5  C 211.36 391.5  214 394.14  214 397.5  C 214 400.86  211.36 403.5  208 403.5  C 204.64 403.5  202 400.86  202 397.5  C 202 394.14  204.64 391.5  208 391.5  Z " fill-rule="nonzero" fill="#ffffff" stroke="none" />
  <path d="M 208 392  C 211.08 392  213.5 394.42  213.5 397.5  C 213.5 400.58  211.08 403  208 403  C 204.92 403  202.5 400.58  202.5 397.5  C 202.5 394.42  204.92 392  208 392  Z " stroke-width="1" stroke="#797979" fill="none" />
  <path d="M 208 400.5  C 206.32 400.5  205 399.18  205 397.5  C 205 395.82  206.32 394.5  208 394.5  C 209.68 394.5  211 395.82  211 397.5  C 211 399.18  209.68 400.5  208 400.5  " fill-rule="nonzero" fill="#797979" stroke="none" />
</svg>