<?xml version="1.0" encoding="utf-8"?>
<svg version="1.1" xmlns:xlink="http://www.w3.org/1999/xlink" width="12px" height="12px" viewBox="354 667.5  12 12" xmlns="http://www.w3.org/2000/svg">
  <path d="M 360 667.5  C 363.36 667.5  366 670.14  366 673.5  C 366 676.86  363.36 679.5  360 679.5  C 356.64 679.5  354 676.86  354 673.5  C 354 670.14  356.64 667.5  360 667.5  Z " fill-rule="nonzero" fill="#ffffff" stroke="none" />
  <path d="M 360 668  C 363.08 668  365.5 670.42  365.5 673.5  C 365.5 676.58  363.08 679  360 679  C 356.92 679  354.5 676.58  354.5 673.5  C 354.5 670.42  356.92 668  360 668  Z " stroke-width="1" stroke="#797979" fill="none" />
  <path d="M 360 676.5  C 358.32 676.5  357 675.18  357 673.5  C 357 671.82  358.32 670.5  360 670.5  C 361.68 670.5  363 671.82  363 673.5  C 363 675.18  361.68 676.5  360 676.5  " fill-rule="nonzero" fill="#797979" stroke="none" />
</svg>