<?xml version="1.0" encoding="utf-8"?>
<svg version="1.1" xmlns:xlink="http://www.w3.org/1999/xlink" width="12px" height="12px" viewBox="201 667.5  12 12" xmlns="http://www.w3.org/2000/svg">
  <path d="M 207 667.5  C 210.36 667.5  213 670.14  213 673.5  C 213 676.86  210.36 679.5  207 679.5  C 203.64 679.5  201 676.86  201 673.5  C 201 670.14  203.64 667.5  207 667.5  Z " fill-rule="nonzero" fill="#ffffff" stroke="none" />
  <path d="M 207 668  C 210.08 668  212.5 670.42  212.5 673.5  C 212.5 676.58  210.08 679  207 679  C 203.92 679  201.5 676.58  201.5 673.5  C 201.5 670.42  203.92 668  207 668  Z " stroke-width="1" stroke="#797979" fill="none" />
  <path d="M 207 676.5  C 205.32 676.5  204 675.18  204 673.5  C 204 671.82  205.32 670.5  207 670.5  C 208.68 670.5  210 671.82  210 673.5  C 210 675.18  208.68 676.5  207 676.5  " fill-rule="nonzero" fill="#797979" stroke="none" />
</svg>