<?xml version="1.0" encoding="utf-8"?>
<svg version="1.1" xmlns:xlink="http://www.w3.org/1999/xlink" width="12px" height="12px" viewBox="202 702.5  12 12" xmlns="http://www.w3.org/2000/svg">
  <path d="M 208 702.5  C 211.36 702.5  214 705.14  214 708.5  C 214 711.86  211.36 714.5  208 714.5  C 204.64 714.5  202 711.86  202 708.5  C 202 705.14  204.64 702.5  208 702.5  Z " fill-rule="nonzero" fill="#ffffff" stroke="none" />
  <path d="M 208 703  C 211.08 703  213.5 705.42  213.5 708.5  C 213.5 711.58  211.08 714  208 714  C 204.92 714  202.5 711.58  202.5 708.5  C 202.5 705.42  204.92 703  208 703  Z " stroke-width="1" stroke="#797979" fill="none" />
  <path d="M 208 711.5  C 206.32 711.5  205 710.18  205 708.5  C 205 706.82  206.32 705.5  208 705.5  C 209.68 705.5  211 706.82  211 708.5  C 211 710.18  209.68 711.5  208 711.5  " fill-rule="nonzero" fill="#797979" stroke="none" />
</svg>