<?xml version="1.0" encoding="utf-8"?>
<svg version="1.1" xmlns:xlink="http://www.w3.org/1999/xlink" width="21px" height="21px" xmlns="http://www.w3.org/2000/svg">
  <g transform="matrix(1 0 0 1 -122 -677 )">
    <path d="M 9.62139423076923 0.769230769230769  L 9.62259615384616 0.769230769230769  L 9.62259615384616 2.12259615384615  C 9.64457070061442 2.12531352360294  9.66536756499081 2.13404820664103  9.68269230769231 2.14783653846154  C 9.69110576923077 2.16466346153846  9.69591346153846 2.18149038461538  9.70432692307693 2.19591346153846  L 11.9230769230769 6.88341346153846  C 12.1004900600429 7.2659713860246  12.4512037334529 7.53974277394163  12.8653846153846 7.61899038461538  L 17.8233173076923 8.52043269230769  L 17.875 8.52884615384615  C 17.8855628064565 8.53117900118673  17.8944438480816 8.53828383448677  17.8990384615385 8.54807692307692  C 17.8990384615385 8.57331730769231  17.9122596153846 8.60216346153846  17.9206730769231 8.62740384615385  C 17.9352259621638 8.66885048945336  17.9260090645682 8.71493497743151  17.8966346153846 8.74759615384615  L 14.3509615384615 12.2319711538462  C 14.0268179671175 12.5537581718077  13.8820463621217 13.0145994610024  13.9639423076923 13.4639423076923  L 14.8665865384615 18.5120192307692  C 14.8683540725318 18.5568700141633  14.8470373010036 18.5995035572198  14.8100961538462 18.625  L 14.7932692307692 18.6394230769231  C 14.7663643082926 18.631309687128  14.7402225469041 18.6208529825726  14.7151442307692 18.6081730769231  L 10.2067307692308 16.2632211538462  C 9.84340950299456 16.0734088427679  9.41019626623622 16.0734088427679  9.046875 16.2632211538462  L 4.50360576923077 18.6081730769231  C 4.49038461538462 18.6081730769231  4.47956730769231 18.6225961538462  4.46514423076923 18.6274038461538  C 4.4551759030237 18.6287862257605  4.44506448159169 18.6287862257605  4.43509615384616 18.6274038461538  C 4.4244468773431 18.6301002475157  4.41329350727229 18.6301002475157  4.40264423076923 18.6274038461538  C 4.37395921364202 18.6002979570744  4.35424794460563 18.5650693060306  4.34615384615385 18.5264423076923  L 5.28365384615385 13.4783653846154  C 5.36859859190241 13.0241693034574  5.22218933113548 12.5574616291358  4.89302884615385 12.2331730769231  L 1.34615384615385 8.796875  C 1.31420119395797 8.74940672438381  1.29820317777804 8.69299266732825  1.30048076923077 8.63581730769231  C 1.30801422971971 8.6170925862577  1.31902553763154 8.59996388506152  1.33293269230769 8.58533653846154  C 1.33293269230769 8.58533653846154  1.34134615384615 8.58533653846154  1.35697115384615 8.57692307692308  C 1.380825694989 8.57491913568216  1.4045175110939 8.57130512983565  1.42788461538462 8.56610576923077  L 6.38581730769231 7.62740384615385  C 6.79696539588559 7.54691381641833  7.14465615384668 7.27430281081902  7.32091346153846 6.89423076923077  L 9.53725961538461 2.20673076923077  C 9.55276213459829 2.16953716212172  9.58335379211973 2.1406935993158  9.62139423076923 2.12740384615385  L 9.62139423076923 0.769230769230769  Z M 9.62379807692307 0.768028846153848  L 9.62139423076923 0.769230769230769  C 9.08102006448079 0.783764113638991  8.59625906821918 1.10522737295011  8.37259615384615 1.59735576923077  L 6.15384615384615 6.28485576923077  L 1.19591346153846 7.22355769230769  C 0.648707178406884 7.30430318059181  0.200580553470746 7.70012480514108  0.0528846153846145 8.23317307692308  C -0.0853737493419238 8.77088205714869  0.058540716281287 9.34201430751501  0.435096153846153 9.75  L 4.00600961538462 13.2163461538462  L 3.06850961538461 18.2644230769231  C 2.97723338498905 18.8104313946036  3.1899343169813 19.3629013478302  3.62379807692308 19.7067307692308  C 3.85581938838885 19.8855253703545  4.14098229851397 19.9815668845955  4.43389423076923 19.9795673076923  C 4.65967171662185 19.9802963168002  4.88187439673823 19.9231939520776  5.07932692307692 19.8137019230769  L 9.62259615384615 17.46875  L 14.1310096153846 19.8137019230769  C 14.3340661652108 19.92292356415  14.5592884985259 19.9845720130501  14.7896634615385 19.9939903846154  C 15.0813467737004 19.9981125777646  15.3645744222987 19.8960139231417  15.5865384615385 19.7067307692308  C 16.0261502717399 19.3671559932455  16.2402203321437 18.8111298623267  16.1418269230769 18.2644230769231  L 15.2391826923077 13.2163461538462  L 18.8100961538462 9.71514423076923  C 19.1968929727957 9.31236080000663  19.3304177356323 8.72928726817354  19.1574519230769 8.19831730769231  C 19.024873886529 7.66852794524834  18.586865038485 7.27033808339015  18.046875 7.18870192307692  L 13.0889423076923 6.28725961538462  L 10.8701923076923 1.59975961538462  C 10.6565487184814 1.0997775443838  10.1674860164657 0.773421334359866  9.62379807692307 0.768028846153848  Z " fill-rule="nonzero" fill="#000000" stroke="none" transform="matrix(1 0 0 1 122 677 )" />
  </g>
</svg>