<?xml version="1.0" encoding="utf-8"?>
<svg version="1.1" xmlns:xlink="http://www.w3.org/1999/xlink" width="20px" height="20px" xmlns="http://www.w3.org/2000/svg">
  <g transform="matrix(1 0 0 1 -162 -677 )">
    <path d="M 6.54210525390625 1.373157890625  C 5.68021119961234 0.290421634427826  4.10713096966877 0.10376509832835  3.01578947265625 0.9547368359375  L 2.9915789453125 0.9747368359375  C 2.98254136424814 0.980565313175349  2.97359295944071 0.986530918550697  2.9647368359375 0.99263158203125  L 2.9047368359375 1.036842109375  C 2.84698464823035 1.08303287523009  2.79673932487706 1.13789437963408  2.75578947265625 1.19947369140625  L 2.74368421875 1.22  L 1.13210525390625 2.83263158203125  C -0.83 4.7947368359375  1.429473671875 9.3721052734375  6.04263158203125 13.983157890625  L 6.373157890625 14.31  C 10.8373684179688 18.6657894726563  15.1957894726563 20.7510526367188  17.1189473632813 18.9015789453125  L 18.8273684179688 17.193157890625  C 19.7984210546875 16.2689473632813  19.8373684179688 14.7142105273438  18.9021052539063 13.7315789453125  L 18.703157890625 13.5315789453125  L 18.6484210546875 13.4826315820312  L 16.09631578125 11.45368421875  C 15.1173684179688 10.7094736914063  13.7078947265625 10.8078947460937  12.8305263085938 11.7115789453125  L 12.1178947460938 12.4247368359375  L 12.0494736914063 12.3815789453125  C 10.3019829619021 11.26708429046  8.81943724539582 9.78382002835881  7.70578947265626 8.03578947265625  L 7.64684210937501 7.9415789453125  L 8.32421052734376 7.18  L 8.31263158203126 7.1915789453125  C 9.24728698084362 6.28456057489922  9.32129840364285 4.80915884254796  8.48210525390625 3.813157890625  L 6.54210525390625 1.373157890625  Z M 5.55368421875 2.16  L 7.56210525390625 4.68631578125  C 7.869473671875 5.109473671875  7.87684208984375 5.66210525390625  7.60368421875 6.07894736328125  L 7.56368421875 6.13421052734375  L 6.08894736328125 7.793157890625  L 6.31947369140625 8.1884210546875  C 7.66522804267363 10.4986349180178  9.58661001259901 12.4207422149937  11.89631578125 13.7673684179688  L 12.316842109375 14.0126315820313  L 13.7305263085938 12.5978947460938  L 13.8 12.5315789453125  C 14.2514678675499 12.1289189232657  14.9301772329948 12.1190533114869  15.393157890625 12.5084210546875  L 17.8326315820313 14.4478947460938  L 17.9873684179687 14.6021052539063  C 18.4415450096131 15.0795427918766  18.4226939466315 15.8347636703591  17.9452631640625 16.2889473632812  L 16.2347368359375 17.9994736914062  C 15.0273684179687 19.160526328125  11.0347368359375 17.1889473828125  6.9352631640625 13.09  L 6.766842109375 12.9205263085938  C 2.7552631640625 8.8552631640625  0.8352631640625 4.91631578125  2.02631578125 3.72631578125  L 3.82105263671875 1.92947369140625  L 3.79263158203125 1.95052630859375  C 4.33767740248696 1.52565330772308  5.12319326627618 1.61885409029723  5.55368421875 2.15947369140625  Z " fill-rule="nonzero" fill="#19193e" stroke="none" transform="matrix(1 0 0 1 162 677 )" />
  </g>
</svg>