<?xml version="1.0" encoding="utf-8"?>
<svg version="1.1" xmlns:xlink="http://www.w3.org/1999/xlink" width="12px" height="12px" viewBox="305 328.5  12 12" xmlns="http://www.w3.org/2000/svg">
  <path d="M 311 328.5  C 314.36 328.5  317 331.14  317 334.5  C 317 337.86  314.36 340.5  311 340.5  C 307.64 340.5  305 337.86  305 334.5  C 305 331.14  307.64 328.5  311 328.5  Z " fill-rule="nonzero" fill="#ffffff" stroke="none" />
  <path d="M 311 329  C 314.08 329  316.5 331.42  316.5 334.5  C 316.5 337.58  314.08 340  311 340  C 307.92 340  305.5 337.58  305.5 334.5  C 305.5 331.42  307.92 329  311 329  Z " stroke-width="1" stroke="#797979" fill="none" />
  <path d="M 311 337.5  C 309.32 337.5  308 336.18  308 334.5  C 308 332.82  309.32 331.5  311 331.5  C 312.68 331.5  314 332.82  314 334.5  C 314 336.18  312.68 337.5  311 337.5  " fill-rule="nonzero" fill="#797979" stroke="none" />
</svg>