<?xml version="1.0" encoding="utf-8"?>
<svg version="1.1" xmlns:xlink="http://www.w3.org/1999/xlink" width="12px" height="12px" viewBox="405 328.5  12 12" xmlns="http://www.w3.org/2000/svg">
  <path d="M 411 328.5  C 414.36 328.5  417 331.14  417 334.5  C 417 337.86  414.36 340.5  411 340.5  C 407.64 340.5  405 337.86  405 334.5  C 405 331.14  407.64 328.5  411 328.5  Z " fill-rule="nonzero" fill="#ffffff" stroke="none" />
  <path d="M 411 329  C 414.08 329  416.5 331.42  416.5 334.5  C 416.5 337.58  414.08 340  411 340  C 407.92 340  405.5 337.58  405.5 334.5  C 405.5 331.42  407.92 329  411 329  Z " stroke-width="1" stroke="#797979" fill="none" />
  <path d="M 411 337.5  C 409.32 337.5  408 336.18  408 334.5  C 408 332.82  409.32 331.5  411 331.5  C 412.68 331.5  414 332.82  414 334.5  C 414 336.18  412.68 337.5  411 337.5  " fill-rule="nonzero" fill="#797979" stroke="none" />
</svg>