<?xml version="1.0" encoding="utf-8"?>
<svg version="1.1" xmlns:xlink="http://www.w3.org/1999/xlink" width="13px" height="11px" xmlns="http://www.w3.org/2000/svg">
  <g transform="matrix(1 0 0 1 -405 -258 )">
    <path d="M 411.5 259.752713951865  C 410.2 258.5  408.9 258.5  408.25 258.5  C 407.15 258.5  405.5 259.427586206897  405.5 261.19  C 405.5 265.365388583016  411.5 268.420550960833  411.5 268.420550960833  C 411.5 268.420550960833  417.5 265.365388583016  417.5 261.19  C 417.5 259.427586206897  415.85 258.5  414.75 258.5  C 414.1 258.5  412.8 258.5  411.5 259.752713951865  Z " fill-rule="nonzero" fill="#fd0000" stroke="none" />
    <path d="M 411.5 259.1  C 410.2 258  408.9 258  408.25 258  C 406.95 258  405 259.1  405 261.19  C 405 265.7  411.5 269  411.5 269  C 411.5 269  418 265.7  418 261.19  C 418 259.1  416.05 258  414.75 258  C 414.1 258  412.8 258  411.5 259.1  Z M 411.5 260.405427903729  C 412.8 259  414.1 259  414.75 259  C 415.65 259  417 259.755172413793  417 261.19  C 417 265.030777166032  411.5 267.841101921666  411.5 267.841101921666  C 411.5 267.841101921666  406 265.030777166032  406 261.19  C 406 259.755172413793  407.35 259  408.25 259  C 408.9 259  410.2 259  411.5 260.405427903729  Z " fill-rule="nonzero" fill="#fd0000" stroke="none" />
  </g>
</svg>