<?xml version="1.0" encoding="utf-8"?>
<svg version="1.1" xmlns:xlink="http://www.w3.org/1999/xlink" width="13px" height="11px" xmlns="http://www.w3.org/2000/svg">
  <g transform="matrix(1 0 0 1 -404 -792 )">
    <path d="M 410.5 793.752713951865  C 409.2 792.5  407.9 792.5  407.25 792.5  C 406.15 792.5  404.5 793.427586206897  404.5 795.19  C 404.5 799.365388583016  410.5 802.420550960833  410.5 802.420550960833  C 410.5 802.420550960833  416.5 799.365388583016  416.5 795.19  C 416.5 793.427586206897  414.85 792.5  413.75 792.5  C 413.1 792.5  411.8 792.5  410.5 793.752713951865  Z " fill-rule="nonzero" fill="#ffffff" stroke="none" />
    <path d="M 410.5 793.1  C 409.2 792  407.9 792  407.25 792  C 405.95 792  404 793.1  404 795.19  C 404 799.7  410.5 803  410.5 803  C 410.5 803  417 799.7  417 795.19  C 417 793.1  415.05 792  413.75 792  C 413.1 792  411.8 792  410.5 793.1  Z M 410.5 794.405427903729  C 411.8 793  413.1 793  413.75 793  C 414.65 793  416 793.755172413793  416 795.19  C 416 799.030777166032  410.5 801.841101921666  410.5 801.841101921666  C 410.5 801.841101921666  405 799.030777166032  405 795.19  C 405 793.755172413793  406.35 793  407.25 793  C 407.9 793  409.2 793  410.5 794.405427903729  Z " fill-rule="nonzero" fill="#f2f2f2" stroke="none" />
  </g>
</svg>