<?xml version="1.0" encoding="utf-8"?>
<svg version="1.1" xmlns:xlink="http://www.w3.org/1999/xlink" width="18px" height="18px" xmlns="http://www.w3.org/2000/svg">
  <g transform="matrix(1 0 0 1 -57 -126 )">
    <path d="M 17.7057976973684 17.7867495888158  C 17.9764083059211 17.5300164473684  17.9879728618421 17.0998149671053  17.7289268092105 16.8268914473684  L 14.2225534539474 13.2950760690789  C 15.559416118421 11.7199835526316  16.2301603618421 9.71700246710526  16.1145148026316 7.65157277960527  C 15.998869243421 5.56532689144737  15.0898951480263 3.63173314144737  13.5587479440789 2.21160567434211  C 12.0669202302632 0.828484786184211  10.1263877467105 0.0652240953947381  8.09333881578947 0.0652240953947381  C 7.04790296052631 0.0652240953947381  6.03022203947368 0.264134457236844  5.0680509868421 0.655016447368422  C 4.07118626644736 1.05977590460526  3.1784025493421 1.65188116776316  2.41282894736842 2.41976768092105  C 0.934878700657892 3.89771792763158  0.0999177631578918 5.86137952302632  0.0605982730263128 7.95225123355263  C 0.0212787828947339 10.0431229440789  0.784539473684208 12.0368523848684  2.20466694078947 13.5679995888158  C 2.97717927631579 14.4006476151316  3.89540501644737 15.0482627467105  4.93158922697368 15.4900287828947  C 5.93539268092105 15.9179173519737  6.99933182565789 16.1353310032895  8.09565172697368 16.1353310032895  C 9.99686472039473 16.1353310032895  11.8379420230263 15.4599609375  13.2881373355263 14.2294921875  L 16.7482524671053 17.7589946546053  C 16.8777754934211 17.8954564144737  17.0535567434211 17.9717824835526  17.2409025493421 17.9717824835526  C 17.4143708881579 17.9717824835526  17.5809004934211 17.9070209703947  17.7057976973684 17.7867495888158  Z M 14.8100328947368 8.12109375  C 14.8077199835526 11.8078741776316  11.8078741776316 14.8077199835526  8.12109375 14.8077199835526  C 4.43662623355263 14.8054070723684  1.43678042763158 11.8032483552632  1.43215460526316 8.12109375  C 1.43215460526316 4.43200041118421  4.43200041118421 1.43215460526316  8.12109375 1.43215460526316  C 11.8101870888158 1.43215460526316  14.8100328947368 4.43200041118421  14.8100328947368 8.12109375  Z " fill-rule="nonzero" fill="#e1bb82" stroke="none" transform="matrix(1 0 0 1 57 126 )" />
  </g>
</svg>