<?xml version="1.0" encoding="utf-8"?>
<svg version="1.1" xmlns:xlink="http://www.w3.org/1999/xlink" width="87px" height="27px" xmlns="http://www.w3.org/2000/svg">
  <defs>
    <mask fill="white" id="clip282">
      <path d="M 15.9427344309234 0.54559964402484  L 70.7458840372226 0.54559964402484  C 79.2652827487473 0.54559964402484  86.1904080171797 6.35418561009112  86.1904080171797 13.5  C 86.1904080171797 20.6458143899089  79.2652827487473 26.4544003559752  70.7458840372226 26.4544003559752  L 15.9427344309234 26.4544003559752  C 7.42333571939871 26.4544003559752  0.498210450966357 20.6458143899089  0.498210450966357 13.5  C 0.498210450966357 6.35418561009112  7.42333571939871 0.54559964402484  15.9427344309234 0.54559964402484  Z M 86.688618468146 13.5  C 86.688618468146 6.14524366886571  79.5143879742305 0.127715761574028  70.7458840372226 0.127715761574028  L 15.9427344309234 0.127715761574028  C 7.17423049391553 0.127715761574028  0 6.14524366886572  0 13.5  C 0 20.8547563311343  7.17423049391553 26.872284238426  15.9427344309234 26.872284238426  L 70.7458840372226 26.872284238426  C 79.5143879742305 26.872284238426  86.688618468146 20.8547563311343  86.688618468146 13.5  Z " fill-rule="evenodd" />
    </mask>
  </defs>
  <g transform="matrix(1 0 0 1 -275 -7 )">
    <path d="M 15.9427344309234 0.54559964402484  L 70.7458840372226 0.54559964402484  C 79.2652827487473 0.54559964402484  86.1904080171797 6.35418561009112  86.1904080171797 13.5  C 86.1904080171797 20.6458143899089  79.2652827487473 26.4544003559752  70.7458840372226 26.4544003559752  L 15.9427344309234 26.4544003559752  C 7.42333571939871 26.4544003559752  0.498210450966357 20.6458143899089  0.498210450966357 13.5  C 0.498210450966357 6.35418561009112  7.42333571939871 0.54559964402484  15.9427344309234 0.54559964402484  Z M 86.688618468146 13.5  C 86.688618468146 6.14524366886571  79.5143879742305 0.127715761574028  70.7458840372226 0.127715761574028  L 15.9427344309234 0.127715761574028  C 7.17423049391553 0.127715761574028  0 6.14524366886572  0 13.5  C 0 20.8547563311343  7.17423049391553 26.872284238426  15.9427344309234 26.872284238426  L 70.7458840372226 26.872284238426  C 79.5143879742305 26.872284238426  86.688618468146 20.8547563311343  86.688618468146 13.5  Z " fill-rule="nonzero" fill="#ffffff" stroke="none" transform="matrix(1 0 0 1 275 7 )" />
    <path d="M 15.9427344309234 0.54559964402484  L 70.7458840372226 0.54559964402484  C 79.2652827487473 0.54559964402484  86.1904080171797 6.35418561009112  86.1904080171797 13.5  C 86.1904080171797 20.6458143899089  79.2652827487473 26.4544003559752  70.7458840372226 26.4544003559752  L 15.9427344309234 26.4544003559752  C 7.42333571939871 26.4544003559752  0.498210450966357 20.6458143899089  0.498210450966357 13.5  C 0.498210450966357 6.35418561009112  7.42333571939871 0.54559964402484  15.9427344309234 0.54559964402484  Z " stroke-width="2" stroke="#d7d7d7" fill="none" transform="matrix(1 0 0 1 275 7 )" mask="url(#clip282)" />
    <path d="M 86.688618468146 13.5  C 86.688618468146 6.14524366886571  79.5143879742305 0.127715761574028  70.7458840372226 0.127715761574028  L 15.9427344309234 0.127715761574028  C 7.17423049391553 0.127715761574028  0 6.14524366886572  0 13.5  C 0 20.8547563311343  7.17423049391553 26.872284238426  15.9427344309234 26.872284238426  L 70.7458840372226 26.872284238426  C 79.5143879742305 26.872284238426  86.688618468146 20.8547563311343  86.688618468146 13.5  Z " stroke-width="2" stroke="#d7d7d7" fill="none" transform="matrix(1 0 0 1 275 7 )" mask="url(#clip282)" />
  </g>
</svg>