<?xml version="1.0" encoding="utf-8"?>
<svg version="1.1" xmlns:xlink="http://www.w3.org/1999/xlink" width="18px" height="18px" xmlns="http://www.w3.org/2000/svg">
  <defs>
    <mask fill="white" id="clip284">
      <path d="M 0.432927702219048 9  C 0.432927702219048 4.15533285612026  4.34989262705798 0.238367931281313  9.19455977093772 0.238367931281313  C 14.0392269148175 0.238367931281313  17.9561918396564 4.15533285612026  17.9561918396564 9  C 17.9561918396564 13.8446671438797  14.0392269148175 17.7616320687187  9.19455977093772 17.7616320687187  C 4.34989262705798 17.7616320687187  0.432927702219048 13.8446671438797  0.432927702219048 9  Z M 2.49448818897639 9  C 2.49448818897639 12.7108088761632  5.48375089477452 15.7000715819613  9.19455977093772 15.7000715819613  C 12.9053686471009 15.7000715819613  15.8946313528991 12.7108088761632  15.8946313528991 9  C 15.8946313528991 5.28919112383679  12.9053686471009 2.29992841803865  9.19455977093771 2.29992841803865  C 9.18997380981241 2.29991898186727  9.18538784019458 2.29991426377784  9.18080186936124 2.29991426377784  C 5.48804497391728 2.29991426377784  2.49447403471556 5.29348520297955  2.49447403471556 8.98624209842351  C 2.49447403471556 8.99082806925781  2.494478752805 8.99541403887372  2.49448818897639 9  Z " fill-rule="evenodd" />
    </mask>
  </defs>
  <g transform="matrix(1 0 0 1 -331 -12 )">
    <path d="M 0.432927702219048 9  C 0.432927702219048 4.15533285612026  4.34989262705798 0.238367931281313  9.19455977093772 0.238367931281313  C 14.0392269148175 0.238367931281313  17.9561918396564 4.15533285612026  17.9561918396564 9  C 17.9561918396564 13.8446671438797  14.0392269148175 17.7616320687187  9.19455977093772 17.7616320687187  C 4.34989262705798 17.7616320687187  0.432927702219048 13.8446671438797  0.432927702219048 9  Z M 2.49448818897639 9  C 2.49448818897639 12.7108088761632  5.48375089477452 15.7000715819613  9.19455977093772 15.7000715819613  C 12.9053686471009 15.7000715819613  15.8946313528991 12.7108088761632  15.8946313528991 9  C 15.8946313528991 5.28919112383679  12.9053686471009 2.29992841803865  9.19455977093771 2.29992841803865  C 9.18997380981241 2.29991898186727  9.18538784019458 2.29991426377784  9.18080186936124 2.29991426377784  C 5.48804497391728 2.29991426377784  2.49447403471556 5.29348520297955  2.49447403471556 8.98624209842351  C 2.49447403471556 8.99082806925781  2.494478752805 8.99541403887372  2.49448818897639 9  Z " fill-rule="nonzero" fill="#ffffff" stroke="none" transform="matrix(1 0 0 1 331 12 )" />
    <path d="M 0.432927702219048 9  C 0.432927702219048 4.15533285612026  4.34989262705798 0.238367931281313  9.19455977093772 0.238367931281313  C 14.0392269148175 0.238367931281313  17.9561918396564 4.15533285612026  17.9561918396564 9  C 17.9561918396564 13.8446671438797  14.0392269148175 17.7616320687187  9.19455977093772 17.7616320687187  C 4.34989262705798 17.7616320687187  0.432927702219048 13.8446671438797  0.432927702219048 9  Z " stroke-width="2" stroke="#d7d7d7" fill="none" transform="matrix(1 0 0 1 331 12 )" mask="url(#clip284)" />
    <path d="M 2.49448818897639 9  C 2.49448818897639 12.7108088761632  5.48375089477452 15.7000715819613  9.19455977093772 15.7000715819613  C 12.9053686471009 15.7000715819613  15.8946313528991 12.7108088761632  15.8946313528991 9  C 15.8946313528991 5.28919112383679  12.9053686471009 2.29992841803865  9.19455977093771 2.29992841803865  C 9.18997380981241 2.29991898186727  9.18538784019458 2.29991426377784  9.18080186936124 2.29991426377784  C 5.48804497391728 2.29991426377784  2.49447403471556 5.29348520297955  2.49447403471556 8.98624209842351  C 2.49447403471556 8.99082806925781  2.494478752805 8.99541403887372  2.49448818897639 9  Z " stroke-width="2" stroke="#d7d7d7" fill="none" transform="matrix(1 0 0 1 331 12 )" mask="url(#clip284)" />
  </g>
</svg>