<?xml version="1.0" encoding="utf-8"?>
<svg version="1.1" xmlns:xlink="http://www.w3.org/1999/xlink" width="115px" height="40px" xmlns="http://www.w3.org/2000/svg">
  <g transform="matrix(1 0 0 1 -375 -220 )">
    <path d="M 376 230  A 9 9 0 0 1 385 221 L 480 221  A 9 9 0 0 1 489 230 L 489 250  A 9 9 0 0 1 480 259 L 385 259  A 9 9 0 0 1 376 250 L 376 230  Z " fill-rule="nonzero" fill="#ffffff" stroke="none" />
    <path d="M 375.5 230  A 9.5 9.5 0 0 1 385 220.5 L 480 220.5  A 9.5 9.5 0 0 1 489.5 230 L 489.5 250  A 9.5 9.5 0 0 1 480 259.5 L 385 259.5  A 9.5 9.5 0 0 1 375.5 250 L 375.5 230  Z " stroke-width="1" stroke-dasharray="9,4" stroke="#aaaaaa" fill="none" stroke-dashoffset="0.5" />
  </g>
</svg>