<?xml version="1.0" encoding="utf-8"?>
<svg version="1.1" xmlns:xlink="http://www.w3.org/1999/xlink" width="28px" height="28px" xmlns="http://www.w3.org/2000/svg">
  <g transform="matrix(1 0 0 1 -98 -406 )">
    <path d="M 112 406  C 119.84 406  126 412.16  126 420  C 126 427.84  119.84 434  112 434  C 104.16 434  98 427.84  98 420  C 98 412.16  104.16 406  112 406  Z " fill-rule="nonzero" fill="#facd91" stroke="none" />
    <path d="M 112 406.5  C 119.56 406.5  125.5 412.44  125.5 420  C 125.5 427.56  119.56 433.5  112 433.5  C 104.44 433.5  98.5 427.56  98.5 420  C 98.5 412.44  104.44 406.5  112 406.5  Z " stroke-width="1" stroke="#ffffff" fill="none" />
  </g>
</svg>