<?xml version="1.0" encoding="utf-8"?>
<svg version="1.1" xmlns:xlink="http://www.w3.org/1999/xlink" width="107px" height="100px" xmlns="http://www.w3.org/2000/svg">
  <g transform="matrix(1 0 0 1 -353 -209 )">
    <path d="M 406.5 209  C 436.46 209  460 231  460 259  C 460 287  436.46 309  406.5 309  C 376.54 309  353 287  353 259  C 353 231  376.54 209  406.5 209  Z " fill-rule="nonzero" fill="#f2f2f2" stroke="none" />
    <path d="M 406.5 209.5  C 436.18 209.5  459.5 231.28  459.5 259  C 459.5 286.72  436.18 308.5  406.5 308.5  C 376.82 308.5  353.5 286.72  353.5 259  C 353.5 231.28  376.82 209.5  406.5 209.5  Z " stroke-width="1" stroke="#797979" fill="none" />
  </g>
</svg>