<?xml version="1.0" encoding="utf-8"?>
<svg version="1.1" xmlns:xlink="http://www.w3.org/1999/xlink" width="174px" height="93px" xmlns="http://www.w3.org/2000/svg">
  <defs>
    <mask fill="white" id="clip271">
      <path d="M 114.1875 92.4561403508772  C 140.07 92.4561403508772  174 96.5894736842105  174 70.7017543859649  C 174 44.8140350877193  112.8825 0  87 0  C 61.1175 0  0 44.8140350877193  0 70.7017543859649  C 0 96.5894736842105  31.21125 92.4561403508772  57.09375 92.4561403508772  L 114.1875 92.4561403508772  Z " fill-rule="evenodd" />
    </mask>
  </defs>
  <g transform="matrix(1 0 0 1 -330 -430 )">
    <path d="M 114.1875 92.4561403508772  C 140.07 92.4561403508772  174 96.5894736842105  174 70.7017543859649  C 174 44.8140350877193  112.8825 0  87 0  C 61.1175 0  0 44.8140350877193  0 70.7017543859649  C 0 96.5894736842105  31.21125 92.4561403508772  57.09375 92.4561403508772  L 114.1875 92.4561403508772  Z " fill-rule="nonzero" fill="#81d3f8" stroke="none" transform="matrix(1 0 0 1 330 430 )" />
    <path d="M 114.1875 92.4561403508772  C 140.07 92.4561403508772  174 96.5894736842105  174 70.7017543859649  C 174 44.8140350877193  112.8825 0  87 0  C 61.1175 0  0 44.8140350877193  0 70.7017543859649  C 0 96.5894736842105  31.21125 92.4561403508772  57.09375 92.4561403508772  L 114.1875 92.4561403508772  Z " stroke-width="2" stroke="#797979" fill="none" transform="matrix(1 0 0 1 330 430 )" mask="url(#clip271)" />
  </g>
</svg>