<?xml version="1.0" encoding="utf-8"?>
<svg version="1.1" xmlns:xlink="http://www.w3.org/1999/xlink" width="160px" height="85px" xmlns="http://www.w3.org/2000/svg">
  <defs>
    <mask fill="white" id="clip273">
      <path d="M 105 84.5029239766082  C 128.8 84.5029239766082  160 88.280701754386  160 64.6198830409357  C 160 40.9590643274854  103.8 0  80 0  C 56.2 0  0 40.9590643274854  0 64.6198830409357  C 0 88.280701754386  28.7 84.5029239766082  52.5 84.5029239766082  L 105 84.5029239766082  Z " fill-rule="evenodd" />
    </mask>
  </defs>
  <g transform="matrix(1 0 0 1 -1084 -438 )">
    <path d="M 105 84.5029239766082  C 128.8 84.5029239766082  160 88.280701754386  160 64.6198830409357  C 160 40.9590643274854  103.8 0  80 0  C 56.2 0  0 40.9590643274854  0 64.6198830409357  C 0 88.280701754386  28.7 84.5029239766082  52.5 84.5029239766082  L 105 84.5029239766082  Z " fill-rule="nonzero" fill="#c280ff" stroke="none" transform="matrix(1 0 0 1 1084 438 )" />
    <path d="M 105 84.5029239766082  C 128.8 84.5029239766082  160 88.280701754386  160 64.6198830409357  C 160 40.9590643274854  103.8 0  80 0  C 56.2 0  0 40.9590643274854  0 64.6198830409357  C 0 88.280701754386  28.7 84.5029239766082  52.5 84.5029239766082  L 105 84.5029239766082  Z " stroke-width="2" stroke="#797979" fill="none" transform="matrix(1 0 0 1 1084 438 )" mask="url(#clip273)" />
  </g>
</svg>