<?xml version="1.0" encoding="utf-8"?>
<svg version="1.1" xmlns:xlink="http://www.w3.org/1999/xlink" width="170px" height="170px" xmlns="http://www.w3.org/2000/svg">
  <g transform="matrix(1 0 0 1 -260 -170 )">
    <path d="M 345 170  C 392.6 170  430 207.4  430 255  C 430 302.6  392.6 340  345 340  C 297.4 340  260 302.6  260 255  C 260 207.4  297.4 170  345 170  Z " fill-rule="nonzero" fill="#ffffff" stroke="none" />
    <path d="M 345 170.5  C 392.32 170.5  429.5 207.68  429.5 255  C 429.5 302.32  392.32 339.5  345 339.5  C 297.68 339.5  260.5 302.32  260.5 255  C 260.5 207.68  297.68 170.5  345 170.5  Z " stroke-width="1" stroke="#797979" fill="none" />
  </g>
</svg>