<?xml version="1.0" encoding="utf-8"?>
<svg version="1.1" xmlns:xlink="http://www.w3.org/1999/xlink" width="171px" height="170px" xmlns="http://www.w3.org/2000/svg">
  <g transform="matrix(1 0 0 1 -489 -410 )">
    <path d="M 574.5 410.5  C 622.1 410.5  659.5 447.68  659.5 495  C 659.5 542.32  622.1 579.5  574.5 579.5  C 526.9 579.5  489.5 542.32  489.5 495  C 489.5 447.68  526.9 410.5  574.5 410.5  Z " fill-rule="nonzero" fill="#ffffff" stroke="none" />
    <path d="M 574.5 410.5  C 622.1 410.5  659.5 447.68  659.5 495  C 659.5 542.32  622.1 579.5  574.5 579.5  C 526.9 579.5  489.5 542.32  489.5 495  C 489.5 447.68  526.9 410.5  574.5 410.5  Z " stroke-width="1" stroke-dasharray="9,4" stroke="#797979" fill="none" stroke-dashoffset="0.5" />
  </g>
</svg>