<?xml version="1.0" encoding="utf-8"?>
<svg version="1.1" xmlns:xlink="http://www.w3.org/1999/xlink" width="10px" height="10px" viewBox="115 439.5  10 10" xmlns="http://www.w3.org/2000/svg">
  <path d="M 120 439.5  C 122.8 439.5  125 441.7  125 444.5  C 125 447.3  122.8 449.5  120 449.5  C 117.2 449.5  115 447.3  115 444.5  C 115 441.7  117.2 439.5  120 439.5  Z " fill-rule="nonzero" fill="#ffffff" stroke="none" />
  <path d="M 120 440  C 122.52 440  124.5 441.98  124.5 444.5  C 124.5 447.02  122.52 449  120 449  C 117.48 449  115.5 447.02  115.5 444.5  C 115.5 441.98  117.48 440  120 440  Z " stroke-width="1" stroke="#797979" fill="none" />
  <path d="M 120 447  C 118.6 447  117.5 445.9  117.5 444.5  C 117.5 443.1  118.6 442  120 442  C 121.4 442  122.5 443.1  122.5 444.5  C 122.5 445.9  121.4 447  120 447  " fill-rule="nonzero" fill="#797979" stroke="none" />
</svg>